<svg width="161" height="34" viewBox="0 0 161 34" fill="none" xmlns="http://www.w3.org/2000/svg">
<path d="M149.227 0.648307C149.227 0.133956 149.094 -0.0153714 148.58 0.00122057C146.922 0.0344045 145.264 0.0509965 143.606 0.00122057C142.976 -0.0153714 142.826 0.16714 142.843 0.781043C142.876 4.14921 142.86 7.51738 142.86 10.8856C142.86 11.1344 142.959 11.4165 142.81 11.6156C142.412 11.2506 142.014 10.8856 141.599 10.5371C136.874 6.47209 129.362 7.38465 125.747 12.4618C123.293 15.8963 122.845 19.7623 123.475 23.8107C124.288 28.9542 128.052 33.3511 133.574 33.8157C137.039 34.0977 140.057 33.1686 142.346 30.3977C142.462 30.265 142.511 30.0327 142.86 30.0659C142.86 30.9784 142.893 31.9076 142.843 32.8367C142.826 33.3511 142.959 33.5004 143.473 33.4838C145.164 33.4506 146.839 33.4506 148.531 33.4838C149.061 33.5004 149.227 33.3511 149.227 32.8035C149.21 22.0851 149.21 11.3667 149.227 0.648307ZM141.268 25.9013C139.709 27.8757 137.603 28.6224 135.182 28.2242C132.529 27.7928 130.854 26.0838 130.025 23.5618C129.727 22.6493 129.594 21.7035 129.627 20.7246C129.71 17.9371 130.672 15.5811 133.275 14.2703C137.155 12.3125 141.832 14.4362 142.694 19.1152C143.158 21.5542 142.876 23.8771 141.268 25.9013Z" fill="#92969A"/>
<path d="M12.9736 33.7991C8.57942 33.7161 5.56153 33.0856 3.09083 30.9121C-0.258707 27.9587 -0.872235 22.8152 1.63163 19.1152C1.81403 18.8497 1.94668 18.6008 2.32806 18.8829C3.73752 19.9116 5.34596 20.5587 6.98757 21.1062C7.36895 21.2389 7.41869 21.2887 7.26946 21.7035C6.55644 23.512 6.68909 25.3372 7.81666 26.8968C8.96081 28.473 10.7351 28.7717 12.5757 28.5726C14.0183 28.4067 15.2951 27.826 16.0247 26.4654C16.9035 24.8394 16.4392 22.8981 14.9137 21.8529C13.2389 20.6914 11.2988 20.1605 9.37535 19.6129C7.55135 19.0986 5.71076 18.6672 4.06916 17.6717C-0.722998 14.7681 -0.756162 8.47972 2.2949 4.92904C3.88676 3.08733 5.95949 2.17477 8.29753 1.75997C10.7848 1.31199 13.2887 1.19585 15.7428 1.95908C20.3525 3.38599 22.8564 7.05281 22.6408 11.8977C22.5745 13.308 22.2595 14.6188 21.5299 15.8134C21.2811 16.2116 21.0987 16.2282 20.7173 15.9461C19.0923 14.8179 17.2517 14.1708 15.3946 13.5735C14.8805 13.4075 14.665 13.308 15.0795 12.7439C16.0247 11.4497 15.9086 9.62457 14.8971 8.36358C13.4545 6.57165 10.3868 6.02411 8.43019 7.20214C6.37404 8.44654 6.2248 11.3501 8.11513 12.9098C9.22612 13.8223 10.5527 14.2703 11.8958 14.6851C14.1178 15.3654 16.3895 15.9129 18.4954 16.9582C24.9457 20.1605 23.9011 28.9376 18.6778 31.9408C16.5221 33.1852 14.2504 33.8488 12.9736 33.7991Z" fill="#92969A"/>
<path d="M79.649 9.02724C79.649 8.46311 79.4666 8.34697 78.936 8.34697C77.2778 8.38015 75.6197 8.38015 73.9615 8.34697C73.3811 8.33038 73.265 8.54607 73.2816 9.06042C73.3148 9.92321 73.2982 10.8026 73.2982 11.6488C73.0329 11.7151 72.9666 11.5492 72.9002 11.4663C69.4346 6.96983 61.4753 6.80391 57.2801 11.1178C53.1181 15.3986 52.5709 22.8318 55.3566 27.9919C58.5403 33.882 65.8529 35.6574 71.2089 31.9242C71.9551 31.4098 72.5188 30.6964 73.2982 29.9165C73.2982 31.0448 73.3148 31.9573 73.2816 32.8533C73.265 33.3179 73.4143 33.4672 73.8786 33.4506C75.5865 33.4174 77.2944 33.4174 79.0189 33.4506C79.5661 33.4672 79.6325 33.2681 79.6325 32.7869C79.6325 24.8892 79.6325 16.9582 79.649 9.02724ZM69.1859 27.8425C65.1731 29.5017 60.696 26.7475 60.1985 22.334C59.9664 20.1439 60.099 18.0201 61.4753 16.195C63.1501 13.9716 65.4218 13.1586 68.0915 13.7228C70.6617 14.2537 72.2535 15.9627 72.9831 18.4681C73.2319 19.2977 73.2485 20.1439 73.265 21.0066C73.2816 24.2753 71.7727 26.7806 69.1859 27.8425Z" fill="#92969A"/>
<path d="M50.4983 18.2195C50.0672 15.1168 48.7075 12.5118 46.2699 10.5374C43.5837 8.38042 40.4331 7.81629 37.1002 8.04858C33.2864 8.31405 30.169 9.89029 27.9967 13.0925C26.0732 15.9132 25.6255 19.0988 25.8743 22.4006C26.1396 25.8352 27.3998 28.8051 30.1026 31.0451C33.0874 33.5173 36.5696 34.2307 40.3336 33.6998C44.9102 33.0693 48.0939 30.6137 49.8185 26.2832C50.0009 25.8186 49.9843 25.6029 49.3708 25.6195C47.5302 25.6527 45.673 25.6361 43.8324 25.6195C43.4345 25.6195 43.1691 25.719 42.9702 26.0841C41.7099 28.3737 38.9739 29.0042 36.7188 28.4733C34.3808 27.9424 32.6397 25.9845 32.2583 23.6118C32.1588 22.9814 32.2749 22.7988 32.9381 22.8154C35.7571 22.8486 38.5594 22.832 41.3783 22.832C44.1972 22.832 46.9995 22.8154 49.8185 22.8486C50.2828 22.8486 50.4817 22.7491 50.5481 22.2513C50.7305 20.8908 50.6807 19.5634 50.4983 18.2195ZM43.5505 18.6343C41.7597 18.6011 39.9688 18.6177 38.178 18.6177C36.4037 18.6177 34.6461 18.6177 32.8718 18.6177C32.4407 18.6177 32.1422 18.5679 32.2914 18.0369C32.905 15.6477 34.132 13.9719 36.7188 13.3248C39.1895 12.7109 41.9587 13.723 43.2521 15.6477C43.7163 16.3446 43.9485 17.141 44.1309 17.954C44.247 18.4849 44.0646 18.6343 43.5505 18.6343Z" fill="#92969A"/>
<path d="M119.925 17.7713C119.262 14.204 117.488 11.3668 114.304 9.54171C111.485 7.93228 108.384 7.7 105.25 8.19776C102.995 8.54619 100.939 9.45875 99.2478 11.0848C96.661 13.557 95.5003 16.6265 95.3676 20.1606C95.2515 23.0642 95.7324 25.8018 97.2579 28.3072C100.674 33.9319 108.219 35.1763 113.624 32.6045C116.576 31.1942 118.499 28.8548 119.511 25.6525C117.339 25.6525 115.249 25.6525 113.16 25.6525C112.745 25.6525 112.596 25.9014 112.43 26.2C111.85 27.2287 110.971 27.909 109.877 28.3238C107.025 29.3857 102.763 28.2906 101.835 23.761C101.685 23.0642 101.785 22.8651 102.531 22.8651C108.069 22.8982 113.624 22.8651 119.163 22.8982C119.876 22.8982 120.091 22.6162 120.124 22.0189C120.191 20.5588 120.191 19.165 119.925 17.7713ZM112.994 18.6341C111.203 18.6009 109.412 18.6175 107.622 18.6175C105.914 18.6175 104.206 18.6009 102.498 18.6175C101.967 18.6175 101.735 18.6175 101.884 17.9207C102.465 15.4982 103.858 13.8224 106.295 13.3413C108.815 12.8435 111.12 13.4076 112.729 15.6641C113.226 16.3444 113.475 17.1242 113.591 17.9538C113.657 18.435 113.558 18.6507 112.994 18.6341Z" fill="#92969A"/>
<path d="M91.1566 16.7423C91.1566 22.0352 91.14 27.3446 91.1732 32.6374C91.1732 33.2679 91.0571 33.5002 90.3773 33.4836C88.7522 33.4338 87.1272 33.4504 85.5022 33.4836C85.0379 33.4836 84.8887 33.3675 84.8887 32.9029C84.9053 22.1347 84.9053 11.3665 84.8887 0.598335C84.8887 0.117168 85.0379 0.0010243 85.5022 0.0176163C87.1604 0.0342082 88.8186 0.0508002 90.4602 0.0176163C91.0737 0.0010243 91.1732 0.233312 91.1732 0.780847C91.1566 6.07369 91.1566 11.3997 91.1566 16.7423Z" fill="#92969A"/>
<path d="M157.22 33.7658C154.981 33.799 153.19 32.2559 153.224 30.1487C153.273 27.7761 154.865 26.3823 157.153 26.3492C159.293 26.316 160.984 27.859 161 29.9496C161 32.1563 159.475 33.716 157.22 33.7658Z" fill="#92969A"/>
</svg>
