<svg width="162" height="34" viewBox="0 0 162 34" fill="none" xmlns="http://www.w3.org/2000/svg">
<path d="M149.903 0.648307C149.903 0.133956 149.77 -0.0153714 149.256 0.00122057C147.597 0.0344045 145.938 0.0509965 144.278 0.00122057C143.648 -0.0153714 143.499 0.16714 143.515 0.781043C143.548 4.14921 143.532 7.51738 143.532 10.8856C143.532 11.1344 143.631 11.4165 143.482 11.6156C143.084 11.2506 142.686 10.8856 142.271 10.5371C137.542 6.47209 130.026 7.38465 126.409 12.4618C123.953 15.8963 123.505 19.7623 124.136 23.8107C124.949 28.9542 128.715 33.3511 134.24 33.8157C137.708 34.0977 140.728 33.1686 143.017 30.3977C143.134 30.265 143.183 30.0327 143.532 30.0659C143.532 30.9784 143.565 31.9076 143.515 32.8367C143.499 33.3511 143.631 33.5004 144.146 33.4838C145.838 33.4506 147.514 33.4506 149.206 33.4838C149.737 33.5004 149.903 33.3511 149.903 32.8035C149.886 22.0851 149.886 11.3667 149.903 0.648307ZM141.939 25.9013C140.379 27.8757 138.272 28.6224 135.85 28.2242C133.195 27.7928 131.519 26.0838 130.69 23.5618C130.391 22.6493 130.258 21.7035 130.291 20.7246C130.374 17.9371 131.337 15.5811 133.942 14.2703C137.824 12.3125 142.503 14.4362 143.366 19.1152C143.83 21.5542 143.548 23.8771 141.939 25.9013Z" fill="white"/>
<path d="M13.5664 33.7991C9.16956 33.7161 6.14982 33.0856 3.67761 30.9121C0.326037 27.9587 -0.287866 22.8152 2.21752 19.1152C2.40003 18.8497 2.53277 18.6008 2.91438 18.8829C4.3247 19.9116 5.93412 20.5587 7.57673 21.1062C7.95834 21.2389 8.00812 21.2887 7.85879 21.7035C7.14534 23.512 7.27807 25.3372 8.40633 26.8968C9.55117 28.473 11.3265 28.7717 13.1682 28.5726C14.6117 28.4067 15.8893 27.826 16.6194 26.4654C17.4987 24.8394 17.0342 22.8981 15.5077 21.8529C13.8319 20.6914 11.8906 20.1605 9.96597 19.6129C8.14085 19.0986 6.29915 18.6672 4.65654 17.6717C-0.138538 14.7681 -0.171722 8.47972 2.8812 4.92904C4.47403 3.08733 6.54803 2.17477 8.88749 1.75997C11.3763 1.31199 13.8817 1.19585 16.3373 1.95908C20.9499 3.38599 23.4552 7.05281 23.2395 11.8977C23.1732 13.308 22.8579 14.6188 22.1279 15.8134C21.879 16.2116 21.6965 16.2282 21.3149 15.9461C19.6889 14.8179 17.8472 14.1708 15.9889 13.5735C15.4745 13.4075 15.2588 13.308 15.6736 12.7439C16.6194 11.4497 16.5032 9.62457 15.4911 8.36358C14.0476 6.57165 10.9781 6.02411 9.02023 7.20214C6.96282 8.44654 6.8135 11.3501 8.70498 12.9098C9.81664 13.8223 11.144 14.2703 12.488 14.6851C14.7113 15.3654 16.9844 15.9129 19.0916 16.9582C25.5458 20.1605 24.5005 28.9376 19.2741 31.9408C17.1171 33.1852 14.844 33.8488 13.5664 33.7991Z" fill="white"/>
<path d="M80.2826 9.02724C80.2826 8.46311 80.1001 8.34697 79.5691 8.34697C77.9099 8.38015 76.2507 8.38015 74.5915 8.34697C74.0108 8.33038 73.8947 8.54607 73.9113 9.06042C73.9445 9.92321 73.9279 10.8026 73.9279 11.6488C73.6624 11.7151 73.596 11.5492 73.5297 11.4663C70.0619 6.96983 62.0978 6.80391 57.9 11.1178C53.7354 15.3986 53.1879 22.8318 55.9753 27.9919C59.161 33.882 66.4781 35.6574 71.8373 31.9242C72.5839 31.4098 73.148 30.6964 73.9279 29.9165C73.9279 31.0448 73.9445 31.9573 73.9113 32.8533C73.8947 33.3179 74.044 33.4672 74.5086 33.4506C76.2176 33.4174 77.9265 33.4174 79.6521 33.4506C80.1996 33.4672 80.266 33.2681 80.266 32.7869C80.266 24.8892 80.266 16.9582 80.2826 9.02724ZM69.8131 27.8425C65.7978 29.5017 61.318 26.7475 60.8202 22.334C60.5879 20.1439 60.7207 18.0201 62.0978 16.195C63.7736 13.9716 66.0467 13.1586 68.718 13.7228C71.2897 14.2537 72.8826 15.9627 73.6126 18.4681C73.8615 19.2977 73.8781 20.1439 73.8947 21.0066C73.9113 24.2753 72.4014 26.7806 69.8131 27.8425Z" fill="white"/>
<path d="M51.114 18.2195C50.6826 15.1168 49.322 12.5118 46.883 10.5374C44.1951 8.38042 41.0426 7.81629 37.7077 8.04858C33.8915 8.31405 30.7722 9.89029 28.5987 13.0925C26.674 15.9132 26.226 19.0988 26.4749 22.4006C26.7404 25.8352 28.0014 28.8051 30.7058 31.0451C33.6924 33.5173 37.1767 34.2307 40.9431 33.6998C45.5225 33.0693 48.7081 30.6137 50.4337 26.2832C50.6162 25.8186 50.5996 25.6029 49.9857 25.6195C48.144 25.6527 46.2857 25.6361 44.444 25.6195C44.0458 25.6195 43.7803 25.719 43.5812 26.0841C42.3202 28.3737 39.5825 29.0042 37.326 28.4733C34.9866 27.9424 33.2444 25.9845 32.8628 23.6118C32.7632 22.9814 32.8794 22.7988 33.5431 22.8154C36.3637 22.8486 39.1677 22.832 41.9884 22.832C44.809 22.832 47.6131 22.8154 50.4337 22.8486C50.8983 22.8486 51.0974 22.7491 51.1637 22.2513C51.3462 20.8908 51.2965 19.5634 51.114 18.2195ZM44.1619 18.6343C42.37 18.6011 40.5781 18.6177 38.7861 18.6177C37.0108 18.6177 35.252 18.6177 33.4767 18.6177C33.0453 18.6177 32.7467 18.5679 32.896 18.0369C33.5099 15.6477 34.7377 13.9719 37.326 13.3248C39.7982 12.7109 42.5691 13.723 43.8633 15.6477C44.3278 16.3446 44.5601 17.141 44.7426 17.954C44.8588 18.4849 44.6763 18.6343 44.1619 18.6343Z" fill="white"/>
<path d="M120.583 17.7713C119.92 14.204 118.144 11.3668 114.959 9.54171C112.138 7.93228 109.035 7.7 105.899 8.19776C103.643 8.54619 101.586 9.45875 99.8932 11.0848C97.3049 13.557 96.1434 16.6265 96.0107 20.1606C95.8945 23.0642 96.3757 25.8018 97.9022 28.3072C101.32 33.9319 108.869 35.1763 114.278 32.6045C117.232 31.1942 119.156 28.8548 120.169 25.6525C117.995 25.6525 115.904 25.6525 113.814 25.6525C113.399 25.6525 113.25 25.9014 113.084 26.2C112.503 27.2287 111.624 27.909 110.529 28.3238C107.675 29.3857 103.411 28.2906 102.482 23.761C102.332 23.0642 102.432 22.8651 103.178 22.8651C108.72 22.8982 114.278 22.8651 119.82 22.8982C120.534 22.8982 120.749 22.6162 120.782 22.0189C120.849 20.5588 120.849 19.165 120.583 17.7713ZM113.648 18.6341C111.856 18.6009 110.064 18.6175 108.272 18.6175C106.563 18.6175 104.854 18.6009 103.145 18.6175C102.614 18.6175 102.382 18.6175 102.531 17.9207C103.112 15.4982 104.506 13.8224 106.945 13.3413C109.467 12.8435 111.773 13.4076 113.382 15.6641C113.88 16.3444 114.129 17.1242 114.245 17.9538C114.312 18.435 114.212 18.6507 113.648 18.6341Z" fill="white"/>
<path d="M91.7971 16.7423C91.7971 22.0352 91.7806 27.3446 91.8137 32.6374C91.8137 33.2679 91.6976 33.5002 91.0173 33.4836C89.3913 33.4338 87.7653 33.4504 86.1393 33.4836C85.6747 33.4836 85.5254 33.3675 85.5254 32.9029C85.542 22.1347 85.542 11.3665 85.5254 0.598335C85.5254 0.117168 85.6747 0.0010243 86.1393 0.0176163C87.7985 0.0342082 89.4577 0.0508002 91.1003 0.0176163C91.7142 0.0010243 91.8137 0.233312 91.8137 0.780847C91.7972 6.07369 91.7971 11.3997 91.7971 16.7423Z" fill="white"/>
<path d="M157.9 33.7658C155.661 33.799 153.869 32.2559 153.902 30.1487C153.952 27.7761 155.544 26.3823 157.834 26.3492C159.974 26.316 161.667 27.859 161.683 29.9496C161.683 32.1563 160.157 33.716 157.9 33.7658Z" fill="white"/>
</svg>
