<svg width="101" height="34" viewBox="0 0 101 34" fill="none" xmlns="http://www.w3.org/2000/svg">
<path d="M10.0154 21.8494L3.95727 10.8914H11.064L14.2428 17.7027L19.602 10.8914H26.8585L17.1721 22.9152L23.0472 33.6067H16.1235L12.9447 27.0619L7.76859 33.6067H0.362305L10.0154 21.8494ZM55.8013 17.8525C56.1674 15.7375 55.019 15.3046 52.6557 15.3379C48.5947 15.3712 48.2119 18.0024 47.6627 20.8169C47.6294 20.7835 55.069 22.0326 55.8013 17.8525ZM53.0718 10.4917C57.9482 10.4584 62.2755 11.824 61.9426 17.0365C61.2769 27.3617 48.7445 25.3633 47.1467 24.7304C46.5476 28.211 47.413 29.0936 50.4421 29.1269C52.9552 29.1936 57.0662 28.8272 59.7291 28.3942L58.9968 32.6575C55.6015 33.69 51.8901 34.2063 47.1634 33.9231C41.721 33.6567 39.9901 29.1103 41.5379 20.7836C42.8527 13.8224 44.7501 10.525 53.0718 10.4917ZM43.3354 11.7407C43.635 11.4409 43.9346 11.1911 44.2674 10.9247H35.1635L35.4298 9.29265C35.979 5.66219 36.2121 4.56305 38.7252 4.59636L42.5698 4.62967L43.119 1.03252C41.9706 0.482951 39.8237 0 37.9097 0C32.8834 0 30.5866 1.99842 29.6546 7.8771L29.1719 10.908L25.6602 15.4877H28.3897L25.4272 33.6234H31.4188L34.3813 15.4877H41.0053C41.5712 14.0389 42.3035 12.7899 43.3354 11.7407ZM80.4667 28.9604H91.1517C91.5179 28.9604 92.633 28.9271 92.8826 27.5116L93.099 26.3625C93.2155 25.4299 93.0324 24.9136 91.7675 24.9136H86.7079C82.6802 24.9136 80.4168 22.6987 81.1158 18.3188L81.4486 16.2871C81.9979 12.69 83.9285 10.6582 88.3223 10.6582C92.6829 10.6582 98.6079 10.7748 100.189 11.8073L99.5899 15.5877H89.3376C87.7897 15.5877 87.4569 16.3704 87.3404 17.1864L87.1573 18.3022C86.8577 19.9675 87.8896 19.751 88.7051 19.751H93.9145C98.275 19.751 99.723 22.782 99.1738 26.0794L98.8076 28.6773C98.0753 33.3403 94.9297 33.9731 92.3001 33.9731C87.9728 33.9731 81.2822 33.7899 79.8675 32.7074L80.4667 28.9604ZM79.6179 15.9707C79.984 13.6725 80.8328 11.9405 82.1643 10.7582C80.1005 10.7248 78.1699 10.7248 77.7205 10.7248C74.9078 10.7248 72.5444 12.2736 70.7303 13.7891L70.2477 10.9413H65.2214L61.6264 33.6234H67.618L69.8815 19.1182C71.7289 17.0032 73.5763 16.6035 76.0562 16.6035C76.5056 16.6035 77.8703 16.6035 79.5014 16.6368C79.518 16.6368 79.6179 15.9707 79.6179 15.9707Z" fill="#92969A"/>
</svg>
