<svg width="101" height="34" viewBox="0 0 101 34" fill="none" xmlns="http://www.w3.org/2000/svg">
<path d="M10.4539 21.8494L4.39207 10.8914H11.5031L14.6839 17.7027L20.0464 10.8914H27.3073L17.6149 22.9152L23.4936 33.6067H16.5658L13.385 27.0619L8.20572 33.6067H0.794922L10.4539 21.8494ZM56.2677 17.8525C56.6341 15.7375 55.485 15.3046 53.1202 15.3379C49.0567 15.3712 48.6737 18.0024 48.1241 20.8169C48.0908 20.7835 55.5349 22.0326 56.2677 17.8525ZM53.5365 10.4917C58.416 10.4584 62.7459 11.824 62.4128 17.0365C61.7467 27.3617 49.2066 25.3633 47.6079 24.7304C47.0083 28.211 47.8743 29.0936 50.9053 29.1269C53.4199 29.1936 57.5333 28.8272 60.1979 28.3942L59.4651 32.6575C56.0678 33.69 52.3541 34.2063 47.6245 33.9231C42.1788 33.6567 40.4469 29.1103 41.9956 20.7836C43.3113 13.8224 45.2098 10.525 53.5365 10.4917ZM43.7942 11.7407C44.094 11.4409 44.3937 11.1911 44.7268 10.9247H35.6174L35.8838 9.29265C36.4334 5.66219 36.6665 4.56305 39.1812 4.59636L43.0282 4.62967L43.5777 1.03252C42.4286 0.482951 40.2803 0 38.3652 0C33.3358 0 31.0377 1.99842 30.1051 7.8771L29.6221 10.908L26.1082 15.4877H28.8394L25.8751 33.6234H31.8703L34.8346 15.4877H41.4627C42.029 14.0389 42.7617 12.7899 43.7942 11.7407ZM80.9481 28.9604H91.6397C92.0061 28.9604 93.1218 28.9271 93.3717 27.5116L93.5881 26.3625C93.7047 25.4299 93.5215 24.9136 92.2559 24.9136H87.1932C83.1631 24.9136 80.8982 22.6987 81.5976 18.3188L81.9307 16.2871C82.4803 12.69 84.4121 10.6582 88.8086 10.6582C93.1718 10.6582 99.1004 10.7748 100.683 11.8073L100.083 15.5877H89.8245C88.2757 15.5877 87.9426 16.3704 87.826 17.1864L87.6429 18.3022C87.3431 19.9675 88.3756 19.751 89.1916 19.751H94.4042C98.7674 19.751 100.216 22.782 99.6667 26.0794L99.3003 28.6773C98.5675 33.3403 95.42 33.9731 92.7888 33.9731C88.4589 33.9731 81.7642 33.7899 80.3486 32.7074L80.9481 28.9604ZM80.0988 15.9707C80.4652 13.6725 81.3145 11.9405 82.6468 10.7582C80.5818 10.7248 78.65 10.7248 78.2003 10.7248C75.3859 10.7248 73.0211 12.2736 71.2059 13.7891L70.7229 10.9413H65.6936L62.0964 33.6234H68.0917L70.3565 19.1182C72.2051 17.0032 74.0536 16.6035 76.535 16.6035C76.9846 16.6035 78.3502 16.6035 79.9822 16.6368C79.9989 16.6368 80.0988 15.9707 80.0988 15.9707Z" fill="white"/>
</svg>
