<svg width="81" height="77" viewBox="0 0 81 77" fill="none" xmlns="http://www.w3.org/2000/svg">
<path d="M67.3608 75.528H14.0275C7.3608 75.528 1.90625 70.3481 1.90625 64.0172V13.3693C1.90625 7.03829 7.3608 1.8584 14.0275 1.8584H67.3608C74.0275 1.8584 79.482 7.03829 79.482 13.3693V64.0172C79.482 70.3481 74.0275 75.528 67.3608 75.528Z" fill="#094989"/>
<path d="M67.361 76.6793H14.0277C6.63373 76.6793 0.694336 71.039 0.694336 64.0174V13.3695C0.694336 6.34785 6.63373 0.70752 14.0277 0.70752H67.361C74.7549 0.70752 80.6943 6.34785 80.6943 13.3695V64.0174C80.6943 71.039 74.7549 76.6793 67.361 76.6793ZM14.0277 3.0097C7.96706 3.0097 3.11858 7.61405 3.11858 13.3695V64.0174C3.11858 69.7728 7.96706 74.3772 14.0277 74.3772H67.361C73.4216 74.3772 78.2701 69.7728 78.2701 64.0174V13.3695C78.2701 7.61405 73.4216 3.0097 67.361 3.0097H14.0277Z" fill="white"/>
<path d="M25.422 64.3627L39.3614 70.9239C40.2099 71.3843 41.3008 71.3843 42.1493 70.9239L55.9675 64.3627C58.2705 63.3267 58.2705 60.2187 55.9675 59.1828L42.0281 52.5065C41.1796 52.046 40.0887 52.046 39.2402 52.5065L25.422 59.0677C23.2402 60.2187 23.2402 63.2116 25.422 64.3627Z" fill="white"/>
<path d="M24.8157 65.5138C29.4218 67.7009 34.0278 70.003 38.6339 72.075C41.4218 73.3412 43.9672 71.4995 46.3915 70.3484C49.4218 68.8519 52.4521 67.4706 55.4824 65.9742C56.4521 65.5138 57.3006 65.1685 58.0278 64.3627C59.3612 62.7512 59.3612 60.449 57.9066 58.8375C57.1794 58.1468 56.3309 57.8015 55.4824 57.3411C54.0278 56.6504 52.6945 55.9598 51.24 55.2691C48.5733 54.0029 45.9066 52.6216 43.1188 51.3554C40.4521 50.0892 38.5127 51.2403 36.0885 52.3914C32.6945 54.0029 29.4218 55.6144 26.0278 57.226C24.9369 57.8015 23.7248 58.2619 23.1188 59.2979C21.6642 61.6001 22.5127 64.2476 24.8157 65.5138C26.3915 66.3196 27.7248 64.1325 26.1491 63.3267C24.6945 62.521 24.9369 61.0245 26.2703 60.2188C26.9975 59.7584 27.846 59.413 28.6945 59.0677C31.4824 57.8015 34.1491 56.4202 36.9369 55.154C38.3915 54.4633 40.0885 53.1971 41.7854 53.8878C44.2097 54.9238 46.3915 56.0749 48.6945 57.226C50.8763 58.2619 53.0582 59.1828 55.1188 60.3339C56.4521 61.0245 56.6945 62.521 55.24 63.3267C54.7551 63.6721 54.1491 63.9023 53.6642 64.1325C50.9975 65.3987 48.2097 66.78 45.543 68.0462C44.2097 68.7368 41.6642 70.5786 40.0885 69.8879C37.543 68.9671 35.24 67.5858 32.8157 66.4347C30.6339 65.3987 28.4521 64.3627 26.2703 63.3267C24.5733 62.521 23.24 64.708 24.8157 65.5138Z" fill="#094989"/>
<path d="M25.422 57.5718L39.2402 64.133C40.0887 64.5934 41.1796 64.5934 42.0281 64.133L55.8463 57.5718C58.1493 56.5358 58.1493 53.4279 55.8463 52.3919L42.0281 45.8307C41.1796 45.3702 40.0887 45.3702 39.2402 45.8307L25.422 52.3919C23.2402 53.4279 23.2402 56.4207 25.422 57.5718Z" fill="white"/>
<path d="M24.8157 58.6075C29.4218 60.7946 34.0278 63.0968 38.6339 65.1687C41.4218 66.4349 43.9672 64.5932 46.3915 63.4421C49.4218 61.9457 52.4521 60.5644 55.4824 59.068C56.4521 58.6075 57.3006 58.2622 58.0278 57.4565C59.3612 55.8449 59.3612 53.5428 57.9066 51.9312C57.1794 51.2406 56.3309 50.8953 55.4824 50.4348C54.0278 49.7442 52.6945 49.0535 51.24 48.3629C48.5733 47.0967 45.9066 45.7154 43.1188 44.4492C40.4521 43.183 38.5127 44.3341 36.0885 45.4851C32.6945 47.0967 29.4218 48.7082 26.0278 50.3197C24.9369 50.8952 23.7248 51.3557 23.1188 52.3917C21.6642 54.809 22.5127 57.4565 24.8157 58.6075C26.3915 59.4133 27.7248 57.2262 26.1491 56.4205C24.6945 55.6147 24.9369 54.1183 26.2703 53.3125C26.9975 52.8521 27.846 52.5068 28.6945 52.1614C31.4824 50.8953 34.1491 49.5139 36.9369 48.2477C38.3915 47.5571 40.0885 46.2909 41.7854 46.9816C44.2097 48.0175 46.3915 49.1686 48.6945 50.3197C50.8763 51.3557 53.0582 52.2766 55.1188 53.4276C56.4521 54.1183 56.6945 55.6147 55.24 56.4205C54.7551 56.7658 54.1491 56.996 53.6642 57.2262C50.9975 58.4924 48.2097 59.8737 45.543 61.1399C44.2097 61.8306 41.6642 63.6723 40.0885 62.9817C37.543 62.0608 35.24 60.6795 32.8157 59.5284C30.6339 58.4924 28.4521 57.4565 26.2703 56.4205C24.5733 55.7298 23.24 57.9169 24.8157 58.6075Z" fill="#094989"/>
<path d="M25.422 50.7803L39.2402 57.3415C40.0887 57.8019 41.1796 57.8019 42.0281 57.3415L55.8463 50.7803C58.1493 49.7443 58.1493 46.6364 55.8463 45.6004L42.0281 39.0392C41.1796 38.5787 40.0887 38.5787 39.2402 39.0392L25.422 45.6004C23.2402 46.6364 23.2402 49.6292 25.422 50.7803Z" fill="white"/>
<path d="M24.8157 51.816C29.4218 54.0031 34.0278 56.3053 38.6339 58.3772C41.4218 59.6434 43.9672 57.8017 46.3915 56.6506C49.4218 55.1542 52.4521 53.7729 55.4824 52.2765C56.4521 51.816 57.3006 51.4707 58.0278 50.665C59.3612 49.0534 59.3612 46.7512 57.9066 45.1397C57.1794 44.4491 56.3309 44.1037 55.4824 43.6433C54.0278 42.9527 52.6945 42.262 51.24 41.5714C48.5733 40.3052 45.9066 38.9239 43.1188 37.6577C40.4521 36.3915 38.5127 37.5425 36.0885 38.6936C32.6945 40.3052 29.4218 41.9167 26.0278 43.5282C24.9369 44.1037 23.7248 44.5642 23.1188 45.6002C21.6642 48.0174 22.5127 50.665 24.8157 51.816C26.3915 52.6218 27.7248 50.4347 26.1491 49.629C24.6945 48.8232 24.9369 47.3268 26.2703 46.521C26.9975 46.0606 27.846 45.7153 28.6945 45.3699C31.4824 44.1037 34.1491 42.7224 36.9369 41.4562C38.3915 40.7656 40.0885 39.4994 41.7854 40.19C44.2097 41.226 46.3915 42.3771 48.6945 43.5282C50.8763 44.5642 53.0582 45.4851 55.1188 46.6361C56.4521 47.3268 56.6945 48.8232 55.24 49.629C54.7551 49.9743 54.1491 50.2045 53.6642 50.4347C50.9975 51.7009 48.2097 53.0822 45.543 54.3484C44.2097 55.0391 41.6642 56.8808 40.0885 56.1902C37.543 55.2693 35.24 53.888 32.8157 52.7369C30.6339 51.7009 28.4521 50.6649 26.2703 49.629C24.5733 48.9383 23.24 51.1254 24.8157 51.816Z" fill="#094989"/>
<path d="M40.8154 16.4775C43.8278 16.4775 46.2699 14.1584 46.2699 11.2976C46.2699 8.43679 43.8278 6.11768 40.8154 6.11768C37.8029 6.11768 35.3608 8.43679 35.3608 11.2976C35.3608 14.1584 37.8029 16.4775 40.8154 16.4775Z" fill="white"/>
<path d="M9.66402 35.1249C12.6765 35.1249 15.1186 32.8058 15.1186 29.945C15.1186 27.0843 12.6765 24.7651 9.66402 24.7651C6.65156 24.7651 4.20947 27.0843 4.20947 29.945C4.20947 32.8058 6.65156 35.1249 9.66402 35.1249Z" fill="white"/>
<path d="M10.0278 68.9672C13.0402 68.9672 15.4823 66.6481 15.4823 63.7873C15.4823 60.9265 13.0402 58.6074 10.0278 58.6074C7.01533 58.6074 4.57324 60.9265 4.57324 63.7873C4.57324 66.6481 7.01533 68.9672 10.0278 68.9672Z" fill="white"/>
<path d="M71.7246 35.1249C74.737 35.1249 77.1791 32.8058 77.1791 29.945C77.1791 27.0843 74.737 24.7651 71.7246 24.7651C68.7121 24.7651 66.27 27.0843 66.27 29.945C66.27 32.8058 68.7121 35.1249 71.7246 35.1249Z" fill="white"/>
<path d="M71.7246 68.9672C74.737 68.9672 77.1791 66.6481 77.1791 63.7873C77.1791 60.9265 74.737 58.6074 71.7246 58.6074C68.7121 58.6074 66.27 60.9265 66.27 63.7873C66.27 66.6481 68.7121 68.9672 71.7246 68.9672Z" fill="white"/>
<path d="M11.3612 63.787C11.3612 54.5783 11.3612 45.4847 11.3612 36.276C11.3612 35.0098 11.3612 33.7436 11.3612 32.3623C11.1187 32.7076 10.8763 33.0529 10.6339 33.5134C19.6036 27.2975 28.5733 21.1967 37.543 14.9809C38.8763 14.06 40.0884 13.2542 41.4218 12.3334C40.9369 12.3334 40.4521 12.3334 40.0884 12.3334C49.0581 18.5492 58.0278 24.65 66.9975 30.8659C68.3309 31.7868 69.543 32.5925 70.8763 33.5134C70.6339 33.1681 70.3915 32.8227 70.149 32.3623C70.149 40.535 70.149 48.8229 70.149 56.9956C70.149 58.1467 70.149 59.2978 70.149 60.564C70.149 62.1755 72.8157 62.2906 72.8157 60.564C72.8157 51.3553 72.8157 42.2617 72.8157 33.053C72.8157 32.017 72.4521 31.4414 71.6036 30.8659C70.149 29.8299 68.6945 28.7939 67.2399 27.8731C62.149 24.4198 57.1793 20.9665 52.0884 17.5133C48.5733 15.096 44.9369 12.5636 41.4218 10.1463C41.0581 9.91608 40.4521 9.91608 40.0884 10.1463C31.6036 16.0168 22.9975 21.8874 14.5127 27.7579C12.9369 28.7939 11.3612 29.945 9.78539 30.981C9.42176 31.2112 8.93691 31.5565 8.69448 32.017C8.45206 32.3623 8.57327 32.9378 8.57327 33.3983C8.57327 38.6933 8.57327 43.9883 8.57327 49.1682C8.57327 54.0028 8.57327 58.9524 8.57327 63.787C8.69448 65.5136 11.3612 65.5136 11.3612 63.787Z" fill="white"/>
<path d="M39.4824 8.99526C39.4824 13.7147 39.4824 18.3191 39.4824 23.0385C39.4824 23.7292 39.4824 24.3047 39.4824 24.9954C39.4824 26.6069 42.1491 26.722 42.1491 24.9954C42.1491 20.2759 42.1491 15.6716 42.1491 10.9521C42.1491 10.2615 42.1491 9.68592 42.1491 8.99526C42.2703 7.38374 39.4824 7.38374 39.4824 8.99526Z" fill="white"/>
<path d="M8.69446 31.0962C11.9672 32.938 15.3611 34.7797 18.6339 36.6215C19.1187 36.8517 19.6036 37.197 20.0884 37.4272C21.6642 38.233 22.9975 36.0459 21.4217 35.2401C18.149 33.3984 14.7551 31.5567 11.4823 29.7149C10.9975 29.4847 10.5126 29.1394 10.0278 28.9092C8.57325 27.9883 7.23992 30.2905 8.69446 31.0962Z" fill="white"/>
<path d="M70.9975 28.9092C67.7247 30.7509 64.3308 32.5926 61.0581 34.4344C60.5732 34.6646 60.0884 35.0099 59.6035 35.2401C58.0278 36.0459 59.4823 38.3481 60.9369 37.4272C64.2096 35.5855 67.6035 33.7437 70.8763 31.902C71.3611 31.6718 71.846 31.3264 72.3308 31.0962C73.9066 30.2905 72.5732 27.9883 70.9975 28.9092Z" fill="white"/>
<path d="M10.1487 62.8662C13.4214 61.0244 16.8154 59.1827 20.0881 57.341C20.573 57.1107 21.0578 56.7654 21.5427 56.5352C23.1184 55.7294 21.6639 53.4273 20.2093 54.3481C16.9366 56.1899 13.5427 58.0316 10.2699 59.8734C9.78508 60.1036 9.30023 60.4489 8.81538 60.6791C7.23963 61.4849 8.57296 63.6719 10.1487 62.8662Z" fill="white"/>
<path d="M72.3307 60.6792C69.058 58.8374 65.6641 56.9957 62.3914 55.154C61.9065 54.9237 61.4217 54.5784 60.9368 54.3482C59.361 53.5424 58.0277 55.7295 59.6035 56.5353C62.8762 58.377 66.2701 60.2187 69.5429 62.0605C70.0277 62.2907 70.5126 62.636 70.9974 62.8663C72.5732 63.672 73.9065 61.4849 72.3307 60.6792Z" fill="white"/>
</svg>
