<svg width="81" height="77" viewBox="0 0 81 77" fill="none" xmlns="http://www.w3.org/2000/svg">
<path d="M67.3608 75.528H14.0275C7.3608 75.528 1.90625 70.3481 1.90625 64.0172V13.3693C1.90625 7.03829 7.3608 1.8584 14.0275 1.8584H67.3608C74.0275 1.8584 79.482 7.03829 79.482 13.3693V64.0172C79.482 70.3481 74.0275 75.528 67.3608 75.528Z" fill="#094989"/>
<path d="M67.361 76.6793H14.0277C6.63373 76.6793 0.694336 71.039 0.694336 64.0174V13.3695C0.694336 6.34785 6.63373 0.70752 14.0277 0.70752H67.361C74.7549 0.70752 80.6943 6.34785 80.6943 13.3695V64.0174C80.6943 71.039 74.7549 76.6793 67.361 76.6793ZM14.0277 3.0097C7.96706 3.0097 3.11858 7.61405 3.11858 13.3695V64.0174C3.11858 69.7728 7.96706 74.3772 14.0277 74.3772H67.361C73.4216 74.3772 78.2701 69.7728 78.2701 64.0174V13.3695C78.2701 7.61405 73.4216 3.0097 67.361 3.0097H14.0277Z" fill="white"/>
<path d="M40.6939 56.6505C52.8776 56.6505 62.7545 48.4563 62.7545 38.3482C62.7545 28.2401 52.8776 20.0459 40.6939 20.0459C28.5102 20.0459 18.6333 28.2401 18.6333 38.3482C18.6333 48.4563 28.5102 56.6505 40.6939 56.6505Z" fill="white"/>
<path d="M40.6942 51.01C49.1961 51.01 56.0882 45.341 56.0882 38.348C56.0882 31.355 49.1961 25.686 40.6942 25.686C32.1924 25.686 25.3003 31.355 25.3003 38.348C25.3003 45.341 32.1924 51.01 40.6942 51.01Z" fill="#094989"/>
<path d="M46.27 54.2334H35.2397V59.4133H46.27V54.2334Z" fill="white"/>
<path d="M61.9062 73.3415V74.3774H19.4819V73.3415C19.4819 65.0536 26.6334 58.2622 35.3607 58.2622H46.0274C54.7547 58.3773 61.9062 65.0536 61.9062 73.3415Z" fill="white"/>
<path d="M17.4214 43.4131C18.3911 43.4131 19.2396 42.6074 19.2396 41.6865V34.8951C19.2396 33.9742 18.3911 33.1685 17.4214 33.1685C15.2396 33.1685 13.4214 34.8951 13.4214 36.967V39.6145C13.5426 41.6865 15.2396 43.4131 17.4214 43.4131Z" fill="white"/>
<path d="M63.8455 43.4131C62.8758 43.4131 62.0273 42.6074 62.0273 41.6865V34.8951C62.0273 33.9742 62.8758 33.1685 63.8455 33.1685C66.0273 33.1685 67.8455 34.8951 67.8455 36.967V39.6145C67.7243 41.6865 66.0273 43.4131 63.8455 43.4131Z" fill="white"/>
<path d="M17.6637 34.5498C17.6637 30.9814 17.6637 27.2979 17.6637 23.7296C17.6637 23.2691 17.6637 22.6936 17.6637 22.2331C17.6637 20.6216 14.9971 20.5065 14.9971 22.2331C14.9971 25.8015 14.9971 29.485 14.9971 33.0534C14.9971 33.5138 14.9971 34.0893 14.9971 34.5498C14.9971 36.1613 17.6637 36.1613 17.6637 34.5498Z" fill="white"/>
<path d="M66.2701 34.5498C66.2701 30.9814 66.2701 27.2979 66.2701 23.7296C66.2701 23.2691 66.2701 22.6936 66.2701 22.2331C66.2701 20.6216 63.6035 20.5065 63.6035 22.2331C63.6035 25.8015 63.6035 29.485 63.6035 33.0534C63.6035 33.5138 63.6035 34.0893 63.6035 34.5498C63.4822 36.1613 66.2701 36.1613 66.2701 34.5498Z" fill="white"/>
<path d="M44.4516 41.2261C44.3304 41.3412 44.2092 41.3412 44.088 41.4563C44.2092 41.3412 44.3304 41.2261 44.2092 41.3412C44.088 41.3412 44.088 41.4563 44.088 41.4563C43.9668 41.5714 43.7243 41.6865 43.6031 41.8016C43.4819 41.8016 43.4819 41.9167 43.3607 41.9167C43.2395 41.9167 43.2395 42.0318 43.1183 42.0318C43.2395 42.0318 43.2395 41.9167 43.2395 42.0318C42.9971 42.1469 42.7546 42.1469 42.5122 42.262C42.391 42.262 42.1486 42.3771 42.0274 42.3771C42.0274 42.3771 41.5425 42.4923 41.785 42.3771C41.4213 42.3771 41.0577 42.3771 40.8153 42.3771C40.088 42.3771 39.8456 42.3771 39.1183 42.1469C38.8759 42.0318 38.6334 42.0318 38.391 41.9167C38.7546 42.0318 38.2698 41.9167 38.2698 41.8016C38.1486 41.8016 38.1486 41.6865 38.0274 41.6865C37.9062 41.5714 37.6637 41.4563 37.5425 41.3412L37.4213 41.2261C37.1789 41.111 37.6637 41.4563 37.5425 41.3412C37.4213 41.2261 37.3001 41.2261 37.3001 41.111C36.8153 40.6505 35.8456 40.6505 35.3607 41.111C34.8759 41.5714 34.8759 42.3771 35.3607 42.9527C36.694 44.334 39.1183 44.9095 41.0577 44.9095C43.1183 44.9095 45.4213 44.334 46.8759 42.9527C47.6031 41.9167 45.6637 40.075 44.4516 41.2261Z" fill="white"/>
</svg>
