<svg width="81" height="77" viewBox="0 0 81 77" fill="none" xmlns="http://www.w3.org/2000/svg">
<path d="M67.3608 75.528H14.0275C7.3608 75.528 1.90625 70.3481 1.90625 64.0172V13.3693C1.90625 7.03829 7.3608 1.8584 14.0275 1.8584H67.3608C74.0275 1.8584 79.482 7.03829 79.482 13.3693V64.0172C79.482 70.3481 74.0275 75.528 67.3608 75.528Z" fill="#094989"/>
<path d="M67.361 76.6793H14.0277C6.63373 76.6793 0.694336 71.039 0.694336 64.0174V13.3695C0.694336 6.34785 6.63373 0.70752 14.0277 0.70752H67.361C74.7549 0.70752 80.6943 6.34785 80.6943 13.3695V64.0174C80.6943 70.9239 74.7549 76.6793 67.361 76.6793ZM14.0277 3.0097C7.96706 3.0097 3.11858 7.61405 3.11858 13.3695V64.0174C3.11858 69.7728 7.96706 74.3772 14.0277 74.3772H67.361C73.4216 74.3772 78.2701 69.7728 78.2701 64.0174V13.3695C78.2701 7.61405 73.4216 3.0097 67.361 3.0097H14.0277Z" fill="white"/>
<path d="M66.3916 23.1533C69.1363 23.1533 71.3613 21.0403 71.3613 18.4338C71.3613 15.8273 69.1363 13.7144 66.3916 13.7144C63.6469 13.7144 61.4219 15.8273 61.4219 18.4338C61.4219 21.0403 63.6469 23.1533 66.3916 23.1533Z" fill="white"/>
<path d="M24.6943 29.0244C27.439 29.0244 29.664 26.9114 29.664 24.3049C29.664 21.6984 27.439 19.5854 24.6943 19.5854C21.9496 19.5854 19.7246 21.6984 19.7246 24.3049C19.7246 26.9114 21.9496 29.0244 24.6943 29.0244Z" fill="white"/>
<path d="M15.7246 47.4414C18.4693 47.4414 20.6943 45.3284 20.6943 42.7219C20.6943 40.1154 18.4693 38.0024 15.7246 38.0024C12.9799 38.0024 10.7549 40.1154 10.7549 42.7219C10.7549 45.3284 12.9799 47.4414 15.7246 47.4414Z" fill="white"/>
<path d="M72.4521 54.5781C75.1968 54.5781 77.4218 52.4651 77.4218 49.8586C77.4218 47.2521 75.1968 45.1392 72.4521 45.1392C69.7074 45.1392 67.4824 47.2521 67.4824 49.8586C67.4824 52.4651 69.7074 54.5781 72.4521 54.5781Z" fill="white"/>
<path d="M38.9973 56.6499V74.2616H36.3307V68.2759C36.3307 61.5996 36.3307 54.9233 36.3307 48.3621C36.3307 46.7506 35.7246 45.3693 34.1489 44.5635C32.8155 43.8729 31.2398 43.988 29.7852 43.988H20.0882C18.2701 43.988 18.2701 41.4556 20.0882 41.4556H20.5731C24.0882 41.4556 27.7246 41.4556 31.2398 41.4556C35.4822 41.4556 39.1186 44.1031 39.1186 48.3621C39.1186 51.1247 38.9973 53.8873 38.9973 56.6499Z" fill="white"/>
<path d="M74.3915 51.2402C72.0884 51.2402 69.9066 51.2402 67.6036 51.2402C67.3612 51.2402 66.9975 51.2402 66.7551 51.2402C65.0581 51.2402 62.3915 51.9308 62.0278 53.7726C61.9066 54.233 62.0278 54.6934 62.0278 55.0387V74.2619H59.3612V69.4274C59.3612 64.3626 59.1187 59.1827 59.3612 54.1179C59.4824 49.8589 63.4824 48.7078 67.7248 48.4775C70.149 48.3624 72.6945 48.5927 74.5127 48.5927C76.2096 48.5927 76.2096 51.2402 74.3915 51.2402Z" fill="white"/>
<path d="M55.2401 33.3984V74.3771H52.5735V33.2833C52.5735 30.866 52.2098 28.3336 50.2705 26.6069C48.6947 25.2256 46.5129 25.571 44.5735 25.571H29.6644C29.6644 25.571 29.5432 25.571 29.422 25.571C27.9674 25.4559 27.9674 23.1537 29.422 23.0386C29.422 23.0386 29.5432 23.0386 29.6644 23.0386H46.7553C49.6644 23.0386 51.9674 23.9594 53.5432 26.3767C54.8765 28.4487 55.2401 30.9811 55.2401 33.3984Z" fill="white"/>
<path d="M47.1187 41.1103V74.3768H44.452V40.3045C44.452 38.3477 44.6944 36.3908 42.755 35.0095C41.058 33.9736 38.8762 34.2038 36.9368 34.2038H3.11865V31.6714H38.8762C42.2702 31.6714 45.7853 32.9376 46.8762 36.1606C47.3611 37.657 47.1187 39.4988 47.1187 41.1103Z" fill="white"/>
<path d="M66.6338 20.1606H59.9672C57.9066 20.1606 55.4823 20.3908 53.4217 19.9304C50.2702 19.1246 48.0884 16.5922 48.0884 13.4843V3.12451H50.755V13.5994C50.755 16.1318 52.9369 17.6282 55.4823 17.6282C57.4217 17.6282 59.3611 17.6282 61.4217 17.6282C63.1187 17.6282 64.8157 17.6282 66.5126 17.6282C68.452 17.5131 68.452 20.1606 66.6338 20.1606Z" fill="white"/>
</svg>
