<svg width="51" height="48" viewBox="0 0 51 48" fill="none" xmlns="http://www.w3.org/2000/svg">
<ellipse cx="25.6941" cy="24.2275" rx="25" ry="23.7412" fill="#094989"/>
<g clip-path="url(#clip0)">
<path d="M18.5287 22.1642C18.5102 21.8215 18.649 21.76 18.9728 21.76C20.0831 21.7776 21.184 21.7425 22.2943 21.7776C22.7476 21.7952 22.8124 21.637 22.8124 21.2592C22.8124 19.9589 22.7199 18.6585 22.8771 17.3582C23.1177 15.355 23.9596 13.6856 25.9488 12.7279C27.0683 12.192 28.2803 12.0163 29.5108 11.946C30.5007 11.8932 31.4815 11.9196 32.4622 12.0338C32.7675 12.069 32.8692 12.1656 32.86 12.4731C32.8045 13.712 32.7767 14.9508 32.7582 16.1984C32.7582 16.4884 32.6287 16.5235 32.3696 16.5235C31.5092 16.5235 30.6488 16.4796 29.7883 16.5587C28.5208 16.6729 27.9565 17.2615 27.9565 18.474C27.9565 19.4493 27.9565 20.4333 27.938 21.4086C27.938 21.6722 27.975 21.7864 28.308 21.7864C29.6588 21.7864 31.0096 21.8303 32.3604 21.8479C32.6565 21.8479 32.749 21.8918 32.6935 22.2081C32.4714 23.5524 32.2864 24.8967 32.1013 26.2409C32.0643 26.5133 31.9626 26.6012 31.6665 26.5924C30.5748 26.5748 29.483 26.6012 28.3913 26.5748C28.012 26.566 27.9472 26.6802 27.9472 27.0141C27.9287 30.0365 27.8824 33.0589 27.8639 36.0814C27.8639 36.4328 27.7899 36.5558 27.3921 36.547C26.0413 36.5207 24.6813 36.5207 23.3305 36.547C22.9604 36.5558 22.8771 36.4416 22.8771 36.1077C22.8586 33.1029 22.8031 30.0892 22.7846 27.0844C22.7846 26.6627 22.6366 26.5836 22.2388 26.5924C21.1008 26.61 19.9628 26.5748 18.8248 26.5924C18.4917 26.6012 18.5287 26.5836 18.538 26.2849C18.5657 25.6083 18.5565 22.8319 18.5287 22.1642Z" fill="white"/>
</g>
<defs>
<clipPath id="clip0">
<rect width="14.3313" height="24.6186" fill="white" transform="translate(18.5286 11.9189)"/>
</clipPath>
</defs>
</svg>
