<svg width="40" height="41" viewBox="0 0 40 41" fill="none" xmlns="http://www.w3.org/2000/svg">
<circle cx="20" cy="20.9357" r="20" fill="#094989"/>
<g clip-path="url(#clip0)">
<path d="M20.8826 19.4026C21.8791 18.2112 23.1379 17.7382 24.589 17.8433C25.9527 17.9309 27.124 18.404 27.7185 19.753C28.0681 20.5239 28.2255 21.3298 28.2429 22.1707C28.2604 24.3958 28.2604 26.6208 28.2779 28.8458C28.2779 29.1261 28.173 29.1962 27.9108 29.1962C27.0016 29.1787 26.0751 29.1787 25.1659 29.1962C24.8687 29.1962 24.7813 29.1086 24.7813 28.8283C24.7988 27.2515 24.7988 25.6747 24.7813 24.0979C24.7813 23.5023 24.7988 22.9066 24.6764 22.3109C24.4841 21.4174 23.9946 20.9619 23.1729 20.9093C22.1938 20.8568 21.4945 21.2772 21.2148 22.1007C21.0574 22.5737 21.0225 23.0818 21.005 23.5899C20.9875 25.3243 20.9875 27.0413 21.005 28.7757C21.005 29.1086 20.9351 29.2313 20.5854 29.2137C19.6938 29.1962 18.8021 29.1962 17.9105 29.2137C17.6133 29.2137 17.5259 29.1086 17.5259 28.8283C17.5259 25.3769 17.5259 21.9255 17.5259 18.474C17.5259 18.1937 17.6133 18.0886 17.9105 18.1061C18.7847 18.1237 19.6413 18.1237 20.5155 18.1061C20.7777 18.1061 20.9001 18.1762 20.8826 18.4565C20.8651 18.7719 20.8826 19.0872 20.8826 19.4026Z" fill="white"/>
<path d="M15.4453 23.7125C15.4453 25.3944 15.4278 27.0763 15.4453 28.7407C15.4453 29.0911 15.3579 29.2313 14.9733 29.2313C14.0991 29.1962 13.2425 29.2138 12.3683 29.2313C12.0711 29.2313 11.9487 29.1437 11.9487 28.8458C11.9487 25.3944 11.9487 21.943 11.9487 18.4916C11.9487 18.2288 12.0187 18.1237 12.2984 18.1237C13.2075 18.1412 14.1341 18.1412 15.0432 18.1237C15.3404 18.1237 15.4278 18.2288 15.4278 18.5091C15.4453 20.2436 15.4453 21.978 15.4453 23.7125Z" fill="white"/>
<path d="M13.6797 16.6695C12.5957 16.6695 11.7041 15.7584 11.7041 14.6372C11.7041 13.5509 12.6132 12.6399 13.6797 12.6399C14.8336 12.6399 15.7427 13.5334 15.7252 14.6722C15.7252 15.7935 14.8336 16.6695 13.6797 16.6695Z" fill="white"/>
</g>
<defs>
<clipPath id="clip0">
<rect width="16.5913" height="16.5913" fill="white" transform="translate(11.7041 12.6399)"/>
</clipPath>
</defs>
</svg>
