<svg width="51" height="48" viewBox="0 0 51 48" fill="none" xmlns="http://www.w3.org/2000/svg">
<ellipse cx="25.6941" cy="24.2275" rx="25" ry="23.7412" fill="#094989"/>
<g clip-path="url(#clip0)">
<path d="M26.7977 22.4079C28.0434 20.9937 29.6168 20.4321 31.4307 20.5569C33.1353 20.6609 34.5995 21.2224 35.3425 22.8238C35.7796 23.7389 35.9763 24.6956 35.9981 25.6938C36.02 28.3351 36.02 30.9763 36.0418 33.6175C36.0418 33.9503 35.9107 34.0335 35.5829 34.0335C34.4465 34.0127 33.2883 34.0127 32.1519 34.0335C31.7804 34.0335 31.6711 33.9295 31.6711 33.5967C31.693 31.725 31.693 29.8533 31.6711 27.9815C31.6711 27.2744 31.693 26.5673 31.54 25.8602C31.2996 24.7996 30.6877 24.2588 29.6606 24.1964C28.4367 24.134 27.5626 24.6332 27.2129 25.6106C27.0163 26.1722 26.9725 26.7753 26.9507 27.3784C26.9288 29.4373 26.9288 31.4754 26.9507 33.5344C26.9507 33.9295 26.8633 34.0751 26.4262 34.0543C25.3117 34.0335 24.1971 34.0335 23.0826 34.0543C22.7111 34.0543 22.6018 33.9295 22.6018 33.5967C22.6018 29.4997 22.6018 25.4027 22.6018 21.3056C22.6018 20.9729 22.7111 20.8481 23.0826 20.8689C24.1753 20.8897 25.2461 20.8897 26.3388 20.8689C26.6666 20.8689 26.8196 20.9521 26.7977 21.2848C26.7759 21.6592 26.7977 22.0335 26.7977 22.4079Z" fill="white"/>
<path d="M20.0011 27.5239C20.0011 29.5205 19.9793 31.517 20.0011 33.4927C20.0011 33.9087 19.8918 34.075 19.4111 34.075C18.3184 34.0335 17.2475 34.0543 16.1549 34.075C15.7833 34.075 15.6304 33.9711 15.6304 33.6175C15.6304 29.5205 15.6304 25.4234 15.6304 21.3264C15.6304 21.0144 15.7178 20.8896 16.0674 20.8896C17.2038 20.9104 18.3621 20.9104 19.4985 20.8896C19.87 20.8896 19.9793 21.0144 19.9793 21.3472C20.0011 23.4061 20.0011 25.465 20.0011 27.5239Z" fill="white"/>
<path d="M17.7939 19.1632C16.439 19.1632 15.3245 18.0818 15.3245 16.7508C15.3245 15.4613 16.4609 14.3799 17.7939 14.3799C19.2363 14.3799 20.3727 15.4405 20.3508 16.7924C20.3508 18.1234 19.2363 19.1632 17.7939 19.1632Z" fill="white"/>
</g>
<defs>
<clipPath id="clip0">
<rect width="20.7392" height="19.6949" fill="white" transform="translate(15.3245 14.3799)"/>
</clipPath>
</defs>
</svg>
