<svg width="40" height="41" viewBox="0 0 40 41" fill="none" xmlns="http://www.w3.org/2000/svg">
<circle cx="20" cy="20.9357" r="20" fill="#094989"/>
<g clip-path="url(#clip0)">
<path d="M9.72823 26.1206C9.8256 24.9466 10.3125 23.8705 11.0914 23.0879C12.552 21.5226 14.1099 19.9573 15.5705 18.4898C17.4206 16.7289 20.3417 16.631 22.2891 18.2941C22.776 18.6855 22.9707 19.1746 22.8734 19.7616C22.6786 20.5443 21.6075 21.0334 20.9259 20.5443C20.8286 20.4464 20.6338 20.3486 20.5365 20.2508C19.5627 19.5659 18.2969 19.5659 17.4206 20.3486C15.8626 21.8161 14.3047 23.2835 12.9415 24.8488C11.773 26.2184 12.2599 28.175 13.8178 28.6642C14.5968 28.8599 15.3758 28.762 16.0574 28.175C16.9337 27.4902 17.6153 26.6098 18.4917 25.8271C18.6864 25.6315 18.7838 25.6315 19.0759 25.7293C19.8549 26.1206 20.8286 26.2184 21.7049 26.1206C21.7049 26.3163 21.5102 26.4141 21.4128 26.5119C20.2443 27.6859 19.1733 28.8599 18.0048 29.936C17.1285 30.7186 16.1547 31.2078 14.9863 31.3056C14.6942 31.4035 14.4021 31.3056 14.0126 31.3056C11.9678 31.3056 10.0203 29.5447 9.72823 27.4902C9.72823 27.2946 9.72823 27.1967 9.63086 27.0011V26.9033C9.72823 26.7076 9.63086 26.4141 9.72823 26.1206Z" fill="white"/>
<path d="M18.2967 15.7506C19.6599 14.381 20.9257 12.8157 22.4836 11.6417C25.5021 9.39159 29.5917 10.9569 30.2733 14.4788C30.5655 16.0441 30.176 17.5115 29.1049 18.7833C27.6443 20.4465 25.989 22.0118 24.4311 23.4792C22.581 25.1423 19.6599 25.2402 17.8098 23.577C17.1282 22.9901 17.0308 22.2074 17.6151 21.6204C18.0045 21.2291 18.7835 21.1313 19.2704 21.4248C19.3677 21.4248 19.3677 21.5226 19.4651 21.5226C20.7309 22.5009 21.8994 22.4031 22.9705 21.3269C24.3337 20.0551 25.5995 18.6855 26.9627 17.4137C27.6443 16.7289 28.0338 15.8484 27.8391 14.8701C27.4496 13.3048 25.5021 12.7178 24.2363 13.794C23.7495 14.1853 23.36 14.5766 22.9705 14.9679C22.6784 15.2614 22.3863 15.4571 22.1915 15.7506C21.8994 16.1419 21.6073 16.3376 21.0231 16.0441C20.0493 15.6528 19.173 15.6528 18.2967 15.7506Z" fill="white"/>
</g>
<defs>
<clipPath id="clip0">
<rect width="20.7401" height="20.7401" fill="white" transform="translate(9.63086 10.5656)"/>
</clipPath>
</defs>
</svg>
