<svg width="18" height="19" viewBox="0 0 18 19" fill="none" xmlns="http://www.w3.org/2000/svg">
<g clip-path="url(#clip0)">
<path d="M17.9207 1.44838C17.9207 1.42353 17.8951 1.39869 17.8951 1.39869C17.8181 1.24961 17.6898 1.10053 17.5103 1.026C17.4846 1.026 17.4846 1.00115 17.459 1.00115C17.3307 0.951459 17.2024 0.926613 17.0485 0.976305C16.9715 0.976305 16.9202 1.00115 16.8433 1.05084C15.0475 1.69684 13.2518 2.34283 11.4304 2.98882C8.4802 4.0572 5.53003 5.10073 2.57987 6.1691C1.91287 6.41756 1.22023 6.66602 0.553234 6.88963C-0.0367995 7.11324 -0.242028 7.90831 0.373658 8.25616C2.27203 9.32453 4.19605 10.4177 6.09441 11.4861C6.29964 11.6104 6.50487 11.7346 6.73575 11.8588C7.8132 13.6477 8.89066 15.4366 9.96811 17.2255C10.122 17.4988 10.276 17.7473 10.4299 18.0206C10.789 18.6169 11.6099 18.4181 11.8408 17.8467C12.5335 16.0578 13.2005 14.2689 13.8931 12.4551C14.9962 9.59783 16.0737 6.74055 17.1768 3.88328C17.4077 3.28697 17.6385 2.66583 17.8694 2.06952C17.8951 2.01983 17.9207 1.9453 17.9464 1.87076C17.972 1.72168 17.972 1.57261 17.9207 1.44838ZM2.55422 7.75924C3.86255 7.28716 5.19654 6.81509 6.53052 6.34302C9.07023 5.42372 11.6356 4.50442 14.1753 3.60997L13.3031 4.42989C11.5073 6.14425 9.73723 7.85862 7.96713 9.57299C7.71059 9.84629 7.4284 10.0948 7.17186 10.3432C5.60699 9.49845 4.09343 8.62884 2.55422 7.75924ZM14.3805 6.88963C13.2774 9.74691 12.2 12.6042 11.0969 15.4615C11.0456 15.6105 10.9943 15.7596 10.9429 15.8838C10.0964 14.4925 9.27546 13.1011 8.42889 11.7097C8.37758 11.6104 8.30062 11.511 8.24932 11.4116L15.2528 4.62865C14.9706 5.39888 14.6627 6.14425 14.3805 6.88963Z" fill="#FDB31C"/>
</g>
<defs>
<clipPath id="clip0">
<rect width="18" height="17.4333" fill="white" transform="translate(0 0.951172)"/>
</clipPath>
</defs>
</svg>
