<svg width="11" height="17" viewBox="0 0 11 17" fill="none" xmlns="http://www.w3.org/2000/svg">
<g clip-path="url(#clip0)">
<path d="M8.94301 0.43646C6.52247 2.30688 4.10194 4.14062 1.64473 6.01103C1.31465 6.26776 0.947904 6.52448 0.617831 6.81788C-0.0789905 7.368 -0.0789905 8.17485 0.617831 8.72497C3.07504 10.5587 5.49558 12.4291 7.91612 14.2995C8.24619 14.5563 8.61294 14.813 8.94301 15.1064C9.41978 15.4731 10.19 15.1797 10.4467 14.703C10.7768 14.1528 10.52 13.566 10.0433 13.1993C7.62272 11.3289 5.20218 9.49514 2.74497 7.62472C2.4149 7.368 2.04815 7.11128 1.71808 6.81788C1.71808 7.44135 1.71808 8.1015 1.71808 8.72497C4.13861 6.85455 6.55915 5.02081 9.01636 3.1504C9.34643 2.89367 9.71318 2.63695 10.0433 2.34355C10.52 1.9768 10.7768 1.39001 10.4467 0.839884C10.19 0.363111 9.41978 0.0697117 8.94301 0.43646Z" fill="#292B33"/>
</g>
<defs>
<clipPath id="clip0">
<rect width="16" height="11" fill="white" transform="translate(0 16.1605) rotate(-90)"/>
</clipPath>
</defs>
</svg>
