<svg width="22" height="20" viewBox="0 0 22 20" fill="none" xmlns="http://www.w3.org/2000/svg">
<path d="M20.35 10.2762H16.8781V11.4917H14.6781V10.2762H7.32187V11.4917H5.12187V10.2762H1.65H0.825H0V17.0534C0 17.5322 0.034375 17.9742 0.20625 18.4162C0.584375 19.4107 1.47812 20 2.44062 20C3.025 20 3.60938 20 4.19375 20H19.5594C19.5938 20 19.6281 20 19.6625 20C20.9688 19.9263 21.9656 18.8214 22 17.4217C22 17.2376 22 17.0166 22 16.8324V13.0387C22 12.1179 22 11.1971 22 10.2762H21.175H20.35Z" fill="#094989"/>
<path d="M1.65 8.50829H5.12187V7.51381H7.32187V8.50829H14.6437V7.51381H16.8438V8.50829H20.3156H21.1406H22C22 7.55064 22 6.55617 22 5.59853C22 4.60405 21.4844 3.64641 20.625 3.20442C20.2125 3.02026 19.8 2.94659 19.3531 2.94659H15.4C15.4 2.54144 15.3313 2.09945 15.1938 1.73112C14.8844 0.957643 14.2656 0.331492 13.5094 0.110497C13.1656 0 12.7875 0 12.4438 0H9.79688C9.59062 0 9.35 0 9.10938 0C8.28438 0.0368324 7.52812 0.478821 7.04688 1.21547C6.70312 1.73112 6.6 2.32044 6.6 2.94659C5.25938 2.94659 3.88438 2.94659 2.54375 2.94659C1.03125 2.94659 0 4.16206 0 5.70902V8.50829H0.825H1.65ZM8.28438 2.5046C8.31875 2.32044 8.42188 2.17311 8.59375 1.98895C8.6625 1.91529 8.73125 1.87845 8.86875 1.80479L9.10938 1.76796C9.28125 1.76796 9.4875 1.76796 9.65938 1.76796H12.1C12.3406 1.76796 12.5813 1.76796 12.7875 1.76796C13.0969 1.76796 13.4062 1.91529 13.5781 2.17311C13.7156 2.39411 13.75 2.57827 13.75 2.76243C13.75 2.8361 13.75 2.87293 13.75 2.94659H8.25V2.90976C8.25 2.68877 8.21562 2.68877 8.28438 2.5046Z" fill="#094989"/>
</svg>
