<svg width="40" height="41" viewBox="0 0 40 41" fill="none" xmlns="http://www.w3.org/2000/svg">
<circle cx="20" cy="20.9357" r="20" fill="#094989"/>
<g clip-path="url(#clip0)">
<path d="M14.0008 19.1965C13.986 18.9078 14.097 18.856 14.3561 18.856C15.2443 18.8708 16.1251 18.8412 17.0132 18.8708C17.3759 18.8856 17.4277 18.7524 17.4277 18.4341C17.4277 17.3387 17.3537 16.2433 17.4795 15.1478C17.672 13.4603 18.3455 12.054 19.9369 11.2472C20.8325 10.7957 21.8021 10.6477 22.7865 10.5885C23.5784 10.5441 24.363 10.5663 25.1476 10.6625C25.3918 10.6921 25.4732 10.7735 25.4658 11.0326C25.4214 12.0762 25.3992 13.1198 25.3844 14.1708C25.3844 14.4151 25.2808 14.4447 25.0735 14.4447C24.3852 14.4447 23.6969 14.4077 23.0085 14.4743C21.9945 14.5705 21.543 15.0664 21.543 16.0878C21.543 16.9094 21.543 17.7384 21.5282 18.5599C21.5282 18.782 21.5578 18.8782 21.8243 18.8782C22.9049 18.8782 23.9855 18.9152 25.0661 18.93C25.303 18.93 25.377 18.967 25.3326 19.2335C25.155 20.3659 25.0069 21.4984 24.8589 22.6308C24.8293 22.8603 24.7479 22.9343 24.511 22.9269C23.6376 22.9121 22.7643 22.9343 21.8909 22.9121C21.5874 22.9047 21.5356 23.0009 21.5356 23.2821C21.5208 25.8283 21.4838 28.3744 21.469 30.9206C21.469 31.2166 21.4098 31.3202 21.0915 31.3128C20.0109 31.2906 18.9229 31.2906 17.8422 31.3128C17.5462 31.3202 17.4795 31.224 17.4795 30.9428C17.4647 28.4114 17.4203 25.8727 17.4055 23.3414C17.4055 22.9861 17.2871 22.9195 16.9688 22.9269C16.0584 22.9417 15.1481 22.9121 14.2377 22.9269C13.9712 22.9343 14.0008 22.9195 14.0082 22.6678C14.0304 22.0979 14.023 19.759 14.0008 19.1965Z" fill="white"/>
</g>
<defs>
<clipPath id="clip0">
<rect width="11.465" height="20.7392" fill="white" transform="translate(14.001 10.566)"/>
</clipPath>
</defs>
</svg>
