<svg width="15" height="21" viewBox="0 0 15 21" fill="none" xmlns="http://www.w3.org/2000/svg">
<path d="M7.8498 0.508301C7.61675 0.508301 7.48359 0.508301 7.48359 0.508301C7.48359 0.508301 7.35042 0.508301 7.11738 0.508301C1.55765 0.929183 -1.70495 6.2064 0.925103 10.5447L6.75117 20.0955C7.08408 20.6459 7.88309 20.6459 8.21601 20.0955L14.0754 10.5447C16.7054 6.2064 13.4428 0.929183 7.8498 0.508301ZM7.48359 9.34683C5.91887 9.34683 4.65378 8.11656 4.65378 6.5949C4.65378 5.07325 5.91887 3.84298 7.48359 3.84298C9.0483 3.84298 10.3134 5.07325 10.3134 6.5949C10.3467 8.11656 9.0483 9.34683 7.48359 9.34683Z" fill="#094989"/>
</svg>
