<svg width="11" height="20" viewBox="0 0 11 20" fill="none" xmlns="http://www.w3.org/2000/svg">
<path d="M6.47971 8.66585V3.64749C7.69867 3.96573 8.15577 4.74908 8.38433 5.38556C8.5113 5.75275 8.89223 6.02203 9.32394 6.02203H9.47631C9.78105 6.02203 10.0858 5.87515 10.2889 5.63036C10.4667 5.38556 10.5429 5.0918 10.4413 4.79804C10.1874 3.96573 9.32394 2.12974 6.47971 1.71359V0.979192C6.47971 0.440636 6.02261 0 5.46392 0C4.90523 0 4.44812 0.440636 4.44812 0.979192V1.68911C1.93403 1.95838 0.232576 3.59853 0.232576 5.87515C0.232576 8.34761 1.83245 9.40024 4.47352 10.1836V15.8874C3.30536 15.6181 2.41653 14.8103 2.06101 13.6353C1.93403 13.2436 1.55311 12.9498 1.096 12.9498H0.994422C0.689684 12.9498 0.384945 13.0967 0.207181 13.317C0.029417 13.5373 -0.0467676 13.8556 0.029417 14.1248C0.537314 16.2056 2.18798 17.5275 4.49891 17.7968V19.0208C4.49891 19.5594 4.95602 20 5.51471 20C6.07339 20 6.5305 19.5594 6.5305 19.0208V17.7968C7.87643 17.6499 8.99381 17.1848 9.75565 16.4504C10.5683 15.6671 11 14.6144 11 13.317C10.9238 11.0159 9.62868 9.62056 6.47971 8.66585ZM8.71446 13.4394C8.71446 14.3941 8.46051 15.5936 6.45432 15.9119V10.7711C8.30814 11.4565 8.71446 12.3378 8.71446 13.4394ZM4.47352 3.57405V8.07834C2.77206 7.46634 2.41653 6.75643 2.41653 5.77723C2.41653 4.52876 3.12759 3.76989 4.47352 3.57405Z" fill="#094989"/>
</svg>
