<svg width="25" height="20" viewBox="0 0 25 20" fill="none" xmlns="http://www.w3.org/2000/svg">
<g clip-path="url(#clip0)">
<path d="M7.3004 11.5625C9.09646 11.5625 10.6318 10.4545 11.2112 8.92045C10.3131 7.8409 9.79171 6.47727 9.79171 4.99999C9.79171 4.74431 9.82068 4.48863 9.84965 4.23295C9.1544 3.69318 8.25637 3.38068 7.3004 3.38068C4.9829 3.38068 3.12891 5.22727 3.12891 7.47158C3.12891 9.7159 5.01187 11.5625 7.3004 11.5625Z" fill="#094989"/>
<path d="M5.79374 12.8977C2.60718 12.8977 0 15.4545 0 18.6079V20H6.08343V18.3807C6.08343 16.2784 6.86558 14.375 8.19814 12.8977H5.79374Z" fill="#094989"/>
<path d="M11.4134 6.67614C11.5872 7.13068 11.8189 7.58523 12.1086 7.95455C12.2824 8.18182 12.4563 8.38068 12.659 8.57955C13.586 9.46023 14.8317 9.97159 16.1932 9.97159C19.0032 9.97159 21.2917 7.72727 21.2917 4.97159C21.2917 2.24432 19.0032 0 16.1932 0C13.8178 0 11.8189 1.59091 11.2685 3.75C11.2106 4.00568 11.1527 4.28977 11.1237 4.57386C11.1237 4.71591 11.0947 4.85795 11.0947 5C11.0947 5.36932 11.1237 5.71023 11.2106 6.05114C11.2685 6.25 11.3265 6.47727 11.4134 6.67614Z" fill="#094989"/>
<path d="M17.8155 11.3352H14.5999C13.4412 11.3352 12.3404 11.6193 11.3554 12.1022C11.0947 12.2159 10.834 12.3579 10.6022 12.5284C10.3705 12.6704 10.1387 12.8409 9.93597 13.0398C8.37165 14.3182 7.38672 16.25 7.38672 18.4091V20.0284H14.6289H15.2662H15.9325H25.0287V18.4091C24.9997 14.4886 21.7842 11.3352 17.8155 11.3352Z" fill="#094989"/>
</g>
<defs>
<clipPath id="clip0">
<rect width="25" height="20" fill="white"/>
</clipPath>
</defs>
</svg>
