<svg width="121" height="115" viewBox="0 0 121 115" fill="none" xmlns="http://www.w3.org/2000/svg">
<path d="M100.695 112.975H20.6945C10.6945 112.975 2.5127 105.205 2.5127 95.7084V19.7365C2.5127 10.2401 10.6945 2.47021 20.6945 2.47021H100.695C110.695 2.47021 118.876 10.2401 118.876 19.7365V95.7084C118.876 105.205 110.695 112.975 100.695 112.975Z" fill="#094989"/>
<path d="M100.694 114.701H20.6943C9.60343 114.701 0.694336 106.241 0.694336 95.7084V19.7366C0.694336 9.20415 9.60343 0.743652 20.6943 0.743652H100.694C111.785 0.743652 120.694 9.20415 120.694 19.7366V95.7084C120.694 106.241 111.785 114.701 100.694 114.701ZM20.6943 4.19692C11.6034 4.19692 4.3307 11.1034 4.3307 19.7366V95.7084C4.3307 104.342 11.6034 111.248 20.6943 111.248H100.694C109.785 111.248 117.058 104.342 117.058 95.7084V19.7366C117.058 11.1034 109.785 4.19692 100.694 4.19692H20.6943Z" fill="white"/>
<path d="M61.4214 81.8955L79.785 88.6294C81.0577 89.1473 82.5123 88.1114 82.5123 86.7301L81.2395 67.3918C81.2395 66.8738 81.4214 66.5285 81.6032 66.1831L93.9668 51.3341C94.8759 50.2981 94.3305 48.7442 92.8759 48.3988L73.4214 43.5643C72.8759 43.3916 72.5123 43.2189 72.3305 42.7009L62.1486 27.5066C61.4214 26.2979 59.6032 26.2979 58.8759 27.5066L48.6941 42.7009C48.5123 43.0463 47.9668 43.3916 47.6032 43.5643L28.1486 48.3988C26.6941 48.7442 26.1486 50.2981 27.0577 51.3341L39.4214 66.1831C39.785 66.5285 39.785 67.0464 39.785 67.3918L38.8759 86.9027C38.8759 88.284 40.1486 89.32 41.6032 88.802L59.9668 81.8955C60.5123 81.7228 60.8759 81.7228 61.4214 81.8955Z" fill="white"/>
<path d="M61.0577 76.7153L76.3304 82.2405C76.8759 82.4132 77.4213 82.0678 77.4213 81.5499L76.5122 65.6648C76.5122 65.4922 76.5122 65.3195 76.6941 65.1468L86.8759 52.8878C87.2395 52.3698 87.0577 51.8518 86.5122 51.6791L70.5122 47.7079C70.3304 47.7079 70.1486 47.5352 69.9668 47.3625L61.6032 34.7581C61.2395 34.2401 60.5123 34.2401 60.1486 34.7581L51.6032 47.1899C51.4213 47.3625 51.2395 47.5352 51.0577 47.5352L35.0577 51.5065C34.5122 51.6791 34.3304 52.3698 34.6941 52.7151L44.8759 64.9742C45.0577 65.1468 45.0577 65.3195 45.0577 65.4922L44.1486 81.3772C44.1486 81.8952 44.6941 82.4132 45.2395 82.0678L60.5123 76.5426C60.5123 76.5426 60.8759 76.5426 61.0577 76.7153Z" fill="white"/>
<path d="M60.5122 78.6147C63.4213 79.6507 66.1485 80.6866 69.0576 81.7226C70.8758 82.4133 72.5122 82.9313 74.3304 83.6219C75.6031 84.1399 76.694 84.6579 77.9667 83.9672C80.694 82.7586 79.2394 77.7514 79.2394 75.6794C79.0576 73.6075 79.0576 71.7082 78.8758 69.6362C78.8758 68.7729 79.0576 66.5283 78.694 65.8376C78.5122 65.4923 77.9667 66.5283 78.3304 66.3556C78.694 66.0103 79.0576 65.4923 79.4213 65.147C80.5122 63.7656 81.7849 62.3843 82.8758 60.8304C84.694 58.5858 86.694 56.5138 88.3304 54.0965C91.2394 50.1253 85.7849 49.2619 83.0576 48.5713C79.4213 47.708 75.6031 46.672 71.9667 45.8087L71.0576 45.636C71.0576 45.4634 72.1485 46.672 71.2394 45.4634C70.3304 44.082 69.4213 42.7007 68.5122 41.3194C66.8758 38.7295 65.2394 35.9669 63.4213 33.5496C60.5122 29.9237 57.9667 34.2402 56.5122 36.4849C54.5122 39.4201 52.3304 42.3554 50.5122 45.4634C50.5122 45.636 50.1485 45.8087 50.1485 45.9813C49.9667 46.672 50.1485 45.2907 50.3304 45.9813C49.9667 45.2907 51.0576 45.8087 50.5122 45.8087C50.3304 45.8087 49.9667 45.9813 49.7849 45.9813C48.1485 46.3267 46.5122 46.8447 44.8758 47.19C41.6031 48.0533 38.1485 48.5713 34.8758 49.6073C30.694 50.9886 33.4213 54.2692 35.0576 56.1685C37.4213 59.1037 39.9667 62.039 42.3304 64.9743C42.694 65.3196 42.8758 65.8376 43.2394 66.1829C43.7849 66.5283 43.2394 65.4923 43.0576 65.8376C42.5122 66.7009 42.8758 68.7729 42.8758 69.6362C42.694 73.2621 42.5122 76.8881 42.1485 80.514C42.1485 81.8953 42.1485 83.2766 43.6031 83.9672C44.8758 84.4852 45.9667 83.9672 47.2394 83.6219C50.8758 82.2406 54.5122 80.8593 58.3304 79.6507C59.0576 79.3053 60.3304 78.7873 61.0576 78.7873C63.6031 78.7873 63.7849 74.9888 61.0576 74.9888C58.3304 74.9888 55.2394 76.7154 52.694 77.7514C50.8758 78.442 49.0576 79.1327 47.2394 79.8233C46.694 79.996 45.9667 80.1687 45.4213 80.514C44.5122 80.8593 44.8758 80.3413 45.4213 80.6866C45.7849 81.032 45.9667 81.3773 46.3304 81.8953C46.1485 81.2046 46.3304 79.996 46.5122 79.1327C46.694 77.2334 46.694 75.3341 46.8758 73.6075C47.0576 71.8808 47.0576 69.9815 47.2394 68.2549C47.2394 67.2189 47.4213 66.1829 47.2394 65.3196C46.8758 64.2836 45.9667 63.4203 45.4213 62.7297C44.3304 61.3484 43.0576 59.9671 41.9667 58.5858C40.694 57.0318 39.6031 55.6505 38.3304 54.0965C37.9667 53.5785 37.4213 53.0605 37.0576 52.5425C36.1485 51.3339 37.2394 52.3699 37.0576 52.7152C36.694 53.0605 36.5122 53.4059 36.1485 53.9238C36.694 53.5785 37.9667 53.4059 38.694 53.2332C40.5122 52.7152 42.5122 52.3699 44.3304 51.8519C46.8758 51.1612 50.1485 50.9886 52.694 49.7799C53.7849 49.2619 54.3304 48.226 54.8758 47.3626C55.7849 45.9813 56.8758 44.4274 57.7849 43.0461C58.8758 41.4921 59.7849 39.9381 60.8758 38.3842C61.4213 37.6935 61.9667 36.6575 62.5122 36.3122C61.9667 36.4849 61.6031 36.6575 61.0576 36.8302C61.2394 36.8302 61.4213 36.8302 61.6031 36.8302C61.0576 36.6575 60.694 36.4849 60.1485 36.3122C60.694 36.6575 61.2394 37.6935 61.7849 38.3842C62.8758 39.9381 63.7849 41.4921 64.8758 43.0461C65.7849 44.4274 66.8758 45.9813 67.7849 47.3626C68.3304 48.226 68.8758 49.2619 69.9667 49.7799C72.3304 50.9886 75.6031 51.3339 78.3304 51.8519C80.1485 52.3699 82.1485 52.7152 83.9667 53.2332C84.694 53.4059 85.9667 53.5785 86.5122 53.9238C86.1485 53.5785 85.9667 53.2332 85.6031 52.7152C85.4213 52.1972 86.5122 51.3339 85.6031 52.3699C85.0576 52.8879 84.694 53.4059 84.3304 53.9238C83.0576 55.4778 81.9667 56.8591 80.694 58.4131C79.6031 59.7944 78.3304 61.1757 77.2394 62.557C76.5122 63.4203 75.6031 64.111 75.4213 65.147C75.0576 66.0103 75.4213 67.2189 75.4213 68.0822C75.6031 69.8089 75.6031 71.7082 75.7849 73.4348C75.9667 75.3341 75.9667 77.2334 76.1485 78.96C76.1485 79.8233 76.5122 81.032 76.3304 81.7226C76.694 81.3773 76.8758 81.032 77.2394 80.514C77.6031 80.1687 77.9667 80.6866 77.2394 80.3413C76.694 79.996 75.9667 79.8233 75.4213 79.6507C73.7849 78.96 71.9667 78.442 70.3304 77.7514C67.7849 76.8881 65.2394 75.8521 62.694 74.9888C59.0576 73.9528 57.9667 77.5787 60.5122 78.6147Z" fill="#094989"/>
<path d="M70.5123 68.9461H50.876V68.2554C50.876 63.0756 55.2396 58.9316 60.6942 58.9316C66.1487 58.9316 70.5123 63.0756 70.5123 68.2554V68.9461Z" fill="#094989"/>
<path d="M60.6943 57.8953C64.008 57.8953 66.6943 55.3443 66.6943 52.1974C66.6943 49.0505 64.008 46.4995 60.6943 46.4995C57.3806 46.4995 54.6943 49.0505 54.6943 52.1974C54.6943 55.3443 57.3806 57.8953 60.6943 57.8953Z" fill="#094989"/>
</svg>
