<svg width="121" height="115" viewBox="0 0 121 115" fill="none" xmlns="http://www.w3.org/2000/svg">
<path d="M100.695 112.975H20.6945C10.6945 112.975 2.5127 105.205 2.5127 95.7084V19.7365C2.5127 10.2401 10.6945 2.47021 20.6945 2.47021H100.695C110.695 2.47021 118.876 10.2401 118.876 19.7365V95.7084C118.876 105.205 110.695 112.975 100.695 112.975Z" fill="#094989"/>
<path d="M100.694 114.701H20.6943C9.60343 114.701 0.694336 106.241 0.694336 95.7084V19.7366C0.694336 9.20415 9.60343 0.743652 20.6943 0.743652H100.694C111.785 0.743652 120.694 9.20415 120.694 19.7366V95.7084C120.694 106.068 111.785 114.701 100.694 114.701ZM20.6943 4.19692C11.6034 4.19692 4.3307 11.1034 4.3307 19.7366V95.7084C4.3307 104.342 11.6034 111.248 20.6943 111.248H100.694C109.785 111.248 117.058 104.342 117.058 95.7084V19.7366C117.058 11.1034 109.785 4.19692 100.694 4.19692H20.6943Z" fill="white"/>
<path d="M60.6943 88.1107C78.3674 88.1107 92.6943 74.5052 92.6943 57.722C92.6943 40.9387 78.3674 27.3333 60.6943 27.3333C43.0212 27.3333 28.6943 40.9387 28.6943 57.722C28.6943 74.5052 43.0212 88.1107 60.6943 88.1107Z" fill="white"/>
<path d="M60.6944 82.9318C75.355 82.9318 87.2398 71.6454 87.2398 57.723C87.2398 43.8005 75.355 32.5142 60.6944 32.5142C46.0337 32.5142 34.1489 43.8005 34.1489 57.723C34.1489 71.6454 46.0337 82.9318 60.6944 82.9318Z" fill="white"/>
<path d="M36.1488 57.7224C36.3307 48.0533 42.6943 39.0748 52.3307 35.7942C62.1488 32.5136 73.2397 35.4489 79.7852 43.2187C86.3306 50.8159 86.8761 61.6937 81.6034 69.9815C76.3306 78.2693 65.6034 82.5859 55.7852 80.514C44.3306 78.0967 36.3307 68.6002 36.1488 57.7224C36.1488 55.3051 31.967 55.1325 32.1488 57.7224C32.3306 69.1182 39.6034 79.3053 50.8761 83.2766C62.1488 87.2478 75.2397 83.9672 82.8761 75.1614C90.5125 66.3556 91.6034 53.7512 85.4216 43.9094C79.2397 34.0676 67.0579 29.0603 55.4216 31.1323C41.967 33.5496 32.5125 44.9453 32.3307 57.7224C32.1488 60.1397 36.1488 60.1397 36.1488 57.7224Z" fill="#094989"/>
<path d="M58.6943 27.1607C58.6943 30.2686 58.6943 33.2039 58.6943 36.3118C58.6943 36.8298 58.6943 37.1752 58.6943 37.6931C58.6943 38.7291 59.6034 39.7651 60.6943 39.5924C61.7852 39.5924 62.6943 38.7291 62.6943 37.6931C62.6943 34.5852 62.6943 31.6499 62.6943 28.542C62.6943 28.024 62.6943 27.6787 62.6943 27.1607C62.6943 26.1247 61.7852 25.0887 60.6943 25.2614C59.6034 25.2614 58.6943 26.1247 58.6943 27.1607Z" fill="#094989"/>
<path d="M58.6943 77.5787C58.6943 80.6866 58.6943 83.6219 58.6943 86.7298C58.6943 87.2478 58.6943 87.5931 58.6943 88.1111C58.6943 89.1471 59.6034 90.1831 60.6943 90.0104C61.7852 90.0104 62.6943 89.1471 62.6943 88.1111C62.6943 85.0032 62.6943 82.0679 62.6943 78.96C62.6943 78.442 62.6943 78.0966 62.6943 77.5787C62.6943 76.5427 61.7852 75.5067 60.6943 75.6794C59.6034 75.852 58.6943 76.5427 58.6943 77.5787Z" fill="#094989"/>
<path d="M28.6943 59.6213C31.967 59.6213 35.0579 59.6213 38.3307 59.6213C38.8761 59.6213 39.2398 59.6213 39.7852 59.6213C40.8761 59.6213 41.967 58.758 41.7852 57.722C41.7852 56.6861 40.8761 55.8228 39.7852 55.8228C36.5125 55.8228 33.4216 55.8228 30.1488 55.8228C29.6034 55.8228 29.2398 55.8228 28.6943 55.8228C27.6034 55.8228 26.5125 56.6861 26.6943 57.722C26.6943 58.758 27.4216 59.6213 28.6943 59.6213Z" fill="#094989"/>
<path d="M81.7851 59.6213C85.0578 59.6213 88.1488 59.6213 91.4215 59.6213C91.9669 59.6213 92.3306 59.6213 92.876 59.6213C93.9669 59.6213 95.0578 58.758 94.876 57.722C94.876 56.6861 93.9669 55.8228 92.876 55.8228C89.6033 55.8228 86.5124 55.8228 83.2397 55.8228C82.6942 55.8228 82.3306 55.8228 81.7851 55.8228C80.6942 55.8228 79.6033 56.6861 79.7851 57.722C79.7851 58.758 80.6942 59.6213 81.7851 59.6213Z" fill="#094989"/>
<path d="M50.876 56.5135L60.1487 64.1107L70.5123 47.8804" fill="white"/>
<path d="M49.4216 57.8949C52.5125 60.3122 55.6034 62.9022 58.6943 65.3195C59.7852 66.1828 61.2398 66.0101 61.967 64.9741C65.058 60.3122 67.9671 55.4777 71.058 50.8158C71.4216 50.1251 71.9671 49.4344 72.3307 48.7438C73.7852 46.6718 70.1489 44.5999 68.8761 46.8445C65.7852 51.5064 62.8761 56.341 59.7852 61.0029C59.4216 61.6935 58.8761 62.3842 58.5125 63.0748C59.6034 62.9022 60.6943 62.7295 61.7852 62.7295C58.6943 60.3122 55.6034 57.7223 52.5125 55.305C51.6034 54.6143 50.5125 54.4417 49.6034 55.305C48.6943 55.9956 48.6943 57.2043 49.4216 57.8949Z" fill="#094989"/>
</svg>
