<svg width="121" height="115" viewBox="0 0 121 115" fill="none" xmlns="http://www.w3.org/2000/svg">
<g clip-path="url(#clip0)">
<path d="M100.553 112.975H20.5527C10.5527 112.975 2.37085 105.205 2.37085 95.7084V19.7365C2.37085 10.2401 10.5527 2.47021 20.5527 2.47021H100.553C110.553 2.47021 118.734 10.2401 118.734 19.7365V95.7084C118.734 105.205 110.553 112.975 100.553 112.975Z" fill="#094989"/>
<path d="M100.553 114.701H20.5527C9.46183 114.701 0.552734 106.241 0.552734 95.7084V19.7366C0.552734 9.20415 9.46183 0.743652 20.5527 0.743652H100.553C111.644 0.743652 120.553 9.20415 120.553 19.7366V95.7084C120.553 106.241 111.644 114.701 100.553 114.701ZM20.5527 4.19692C11.4618 4.19692 4.1891 11.1034 4.1891 19.7366V95.7084C4.1891 104.342 11.4618 111.248 20.5527 111.248H100.553C109.644 111.248 116.916 104.342 116.916 95.7084V19.7366C116.916 11.1034 109.644 4.19692 100.553 4.19692H20.5527Z" fill="white"/>
<path d="M83.6436 88.1112H37.4618C35.8255 88.1112 34.5527 86.9025 34.5527 85.3486V30.0964C34.5527 28.5424 35.8255 27.3337 37.4618 27.3337H83.4618C85.0982 27.3337 86.3709 28.5424 86.3709 30.0964V85.3486C86.5527 86.9025 85.0982 88.1112 83.6436 88.1112Z" fill="white"/>
<path d="M70.5528 82.2404H40.1892V32.686H80.9165V72.7439L70.5528 82.2404Z" fill="white"/>
<path d="M70.5528 80.3413C60.371 80.3413 50.1891 80.3413 40.0073 80.3413C40.7346 81.032 41.4619 81.7226 42.0073 82.2406C42.0073 67.7369 42.0073 53.2332 42.0073 38.7295C42.0073 36.6575 42.0073 34.5856 42.0073 32.5136C41.2801 33.2043 40.5528 33.8949 40.0073 34.4129C51.8255 34.4129 63.8255 34.4129 75.6437 34.4129C77.2801 34.4129 79.0982 34.4129 80.7346 34.4129C80.0073 33.7222 79.2801 33.0316 78.7346 32.5136C78.7346 44.2547 78.7346 55.9958 78.7346 67.5642C78.7346 69.2909 78.7346 70.8448 78.7346 72.5715C78.9164 72.0535 79.0982 71.7082 79.2801 71.1902C75.8255 74.2981 72.371 77.5787 68.9164 80.6866C67.0982 82.4133 69.8255 85.1759 71.8255 83.4493C74.9164 80.6866 77.8255 77.924 80.9164 75.1614C81.8255 74.2981 82.5528 73.7801 82.7346 72.3988C82.9164 71.5355 82.7346 70.4995 82.7346 69.4635C82.7346 59.9671 82.7346 50.4706 82.7346 40.9741C82.7346 38.0388 82.7346 35.2762 82.7346 32.3409C82.7346 31.305 81.8255 30.4417 80.7346 30.4417C68.9164 30.4417 56.9164 30.4417 45.0982 30.4417C43.4619 30.4417 41.6437 30.4417 40.0073 30.4417C38.9164 30.4417 38.0073 31.305 38.0073 32.3409C38.0073 46.8447 38.0073 61.3484 38.0073 75.8521C38.0073 77.924 38.0073 79.996 38.0073 82.0679C38.0073 83.1039 38.9164 83.9672 40.0073 83.9672C50.1891 83.9672 60.371 83.9672 70.5528 83.9672C73.2801 84.1399 73.2801 80.3413 70.5528 80.3413Z" fill="#094989"/>
<path d="M70.0073 82.7586V74.1254C70.0073 73.0894 70.9164 72.0535 72.1891 72.0535H81.6437" fill="#094989"/>
<path d="M73.6437 46.6723H48.0074C46.9165 46.6723 46.1892 45.8089 46.1892 44.9456C46.1892 43.9096 47.0983 43.219 48.0074 43.219H73.6437C74.7347 43.219 75.4619 44.0823 75.4619 44.9456C75.6437 45.8089 74.7347 46.6723 73.6437 46.6723Z" fill="#094989"/>
<path d="M73.6437 55.3053H48.0074C46.9165 55.3053 46.1892 54.442 46.1892 53.5787C46.1892 52.5427 47.0983 51.8521 48.0074 51.8521H73.6437C74.7347 51.8521 75.4619 52.7154 75.4619 53.5787C75.6437 54.6147 74.7347 55.3053 73.6437 55.3053Z" fill="#094989"/>
<path d="M73.6437 64.1112H48.0074C46.9165 64.1112 46.1892 63.2479 46.1892 62.3846C46.1892 61.3486 47.0983 60.658 48.0074 60.658H73.6437C74.7347 60.658 75.4619 61.5213 75.4619 62.3846C75.6437 63.2479 74.7347 64.1112 73.6437 64.1112Z" fill="#094989"/>
</g>
<defs>
<clipPath id="clip0">
<rect width="120" height="113.958" fill="white" transform="translate(0.552734 0.743652)"/>
</clipPath>
</defs>
</svg>
