<svg width="234" height="50" viewBox="0 0 234 50" fill="none" xmlns="http://www.w3.org/2000/svg">
<g clip-path="url(#clip0)">
<path d="M81.2335 36.2497H75.3237V14.8978H84.7187C87.2758 14.8978 89.2268 15.5211 90.5717 16.7677C91.9165 18.0142 92.5984 19.7772 92.5984 22.0388C92.5984 24.3005 91.9165 26.0635 90.5717 27.31C89.2079 28.5566 87.2569 29.1799 84.7187 29.1799H81.2335V36.2497ZM81.2335 24.6922H83.1845C85.3438 24.6922 86.4424 23.8018 86.4424 22.0388C86.4424 20.2759 85.3628 19.3855 83.1845 19.3855H81.2335V24.6922Z" fill="#094989"/>
<path d="M101.653 14.8978V31.5483H108.737V36.2497H95.7617V14.8978H101.653Z" fill="#094989"/>
<path d="M117.241 14.8978V26.5087C117.241 27.132 117.26 27.773 117.317 28.4141C117.374 29.073 117.526 29.6607 117.772 30.1771C118.018 30.7114 118.416 31.1388 118.965 31.4593C119.514 31.7977 120.272 31.9579 121.257 31.9579C122.242 31.9579 123 31.7977 123.53 31.4593C124.06 31.121 124.458 30.6936 124.723 30.1771C124.988 29.6429 125.14 29.0552 125.197 28.4141C125.254 27.7552 125.273 27.132 125.273 26.5087V14.8978H131.145V27.2744C131.145 30.6045 130.33 33.0264 128.72 34.5579C127.11 36.0894 124.61 36.8551 121.257 36.8551C117.904 36.8551 115.423 36.0894 113.794 34.5579C112.165 33.0264 111.351 30.6045 111.351 27.2744V14.8978H117.241Z" fill="#094989"/>
<path d="M148.362 20.3649C147.718 19.8662 147.074 19.5101 146.43 19.2786C145.786 19.0471 145.161 18.9224 144.555 18.9224C143.797 18.9224 143.172 19.1005 142.68 19.4388C142.187 19.7772 141.96 20.2224 141.96 20.7745C141.96 21.1484 142.074 21.469 142.32 21.7005C142.566 21.9498 142.869 22.1635 143.267 22.3416C143.665 22.5196 144.1 22.6799 144.593 22.8046C145.085 22.9292 145.578 23.0717 146.051 23.232C147.983 23.8374 149.385 24.6388 150.275 25.6539C151.166 26.6689 151.62 27.9867 151.62 29.6072C151.62 30.6935 151.431 31.6908 151.033 32.5812C150.635 33.4716 150.067 34.2195 149.309 34.8606C148.552 35.5017 147.624 35.9825 146.544 36.3387C145.445 36.6948 144.214 36.8551 142.831 36.8551C139.952 36.8551 137.3 36.0537 134.857 34.451L137.395 29.9812C138.285 30.7113 139.157 31.2634 140.009 31.6195C140.88 31.9757 141.733 32.1538 142.566 32.1538C143.532 32.1538 144.252 31.9401 144.725 31.5305C145.199 31.1209 145.426 30.6401 145.426 30.1237C145.426 29.8031 145.369 29.5182 145.237 29.2867C145.123 29.0552 144.915 28.8415 144.631 28.6278C144.347 28.4319 143.987 28.2538 143.532 28.0757C143.078 27.8977 142.528 27.7196 141.884 27.5059C141.127 27.2744 140.369 27.0251 139.649 26.758C138.91 26.4908 138.266 26.1169 137.698 25.6717C137.13 25.2265 136.656 24.6566 136.315 23.9621C135.956 23.2676 135.785 22.395 135.785 21.3443C135.785 20.2936 135.974 19.332 136.334 18.4772C136.713 17.6224 137.225 16.8745 137.907 16.269C138.588 15.6635 139.403 15.1827 140.369 14.8444C141.335 14.506 142.434 14.3279 143.646 14.3279C144.763 14.3279 145.938 14.4704 147.169 14.7731C148.4 15.0581 149.575 15.5033 150.692 16.0553L148.362 20.3649Z" fill="#094989"/>
<path d="M161.943 17.9252V36.2497H158.515V17.9252H153.287V14.8978H167.133V17.9252H161.943Z" fill="#094989"/>
<path d="M182.741 17.9252H173.63V23.0539H182.476V26.0813H173.63V33.2223H182.741V36.2497H170.221V14.8978H182.741V17.9252Z" fill="#094989"/>
<path d="M200.584 31.0676H190.867L188.329 36.2497H184.635L195.868 13.5623L206.702 36.2497H202.952L200.584 31.0676ZM199.183 28.0402L195.811 20.7745L192.288 28.0402H199.183Z" fill="#094989"/>
<path d="M208.748 36.2497L213.521 13.2951L221.306 29.8922L229.375 13.2951L233.675 36.2497H230.152L227.993 23.3566L221.268 37.2291L214.734 23.3566L212.29 36.2497H208.748Z" fill="#094989"/>
<path d="M23.2914 7.46158V28.2257V42.3653H8.55484C9.27461 38.9818 11.0551 35.8832 13.7069 33.3901C16.3588 30.8969 19.6546 29.2408 23.2535 28.5641C23.2345 28.4394 23.2156 28.3326 23.1967 28.2079H8.6306C8.55484 28.2792 8.49801 28.3326 8.42224 28.4038C5.99773 30.6654 4.10357 33.301 2.77766 36.2572C1.39493 39.3023 0.694092 42.5434 0.694092 45.8735V49.3995H30.6596H30.7165V28.2079V27.9586V24.6819V7.39035H30.7354H30.7922V7.37254H45.5287C44.809 10.7561 43.0285 13.8547 40.3766 16.3478C38.4825 18.1286 36.2474 19.482 33.8039 20.3546V21.156H45.8318C48.1616 18.93 49.999 16.3478 51.3059 13.4629C52.6887 10.4177 53.3705 7.17665 53.3895 3.84655V0.320557H23.2914V7.46158Z" fill="#FDB31C"/>
<path d="M23.2914 28.5463V28.2079H23.1777H8.63062H23.1967C23.2156 28.3326 23.2346 28.4395 23.2535 28.5641C23.2724 28.5641 23.2724 28.5463 23.2914 28.5463Z" fill="white"/>
<path d="M23.1967 28.2079H23.3103V7.46157C23.2345 7.39033 23.1588 7.3191 23.083 7.23006C20.6585 4.96844 17.8362 3.18764 14.7108 1.94108C11.4718 0.658897 8.02447 0 4.4824 0H0.694092V28.2079H8.6306H23.1967ZM8.176 21.1738V7.37253C11.7938 8.04923 15.1086 9.70538 17.7604 12.1985C20.4122 14.6916 22.1738 17.7902 22.9125 21.1738H8.176Z" fill="#094989"/>
<path d="M33.804 28.2079H45.5288V42.0092C41.9109 41.3325 38.5962 39.6763 35.9444 37.1832C35.1488 36.4353 34.448 35.6517 33.8229 34.7969V44.6982C35.4329 45.8023 37.1756 46.7105 39.0129 47.4584C42.2519 48.7406 45.6992 49.3995 49.2413 49.3995H53.0107V21.1738H45.8318H33.804V28.2079Z" fill="#094989"/>
<path d="M30.7354 49.3817H30.7732V28.2079H30.7922V27.9586L30.7732 24.6997V7.39032H30.7354V49.3817Z" fill="white"/>
</g>
<defs>
<clipPath id="clip0">
<rect width="233" height="49.3817" fill="white" transform="translate(0.694092)"/>
</clipPath>
</defs>
</svg>
