<svg width="54" height="50" viewBox="0 0 54 50" fill="none" xmlns="http://www.w3.org/2000/svg">
<path d="M23.2914 7.46158V28.2257V42.3653H8.55484C9.27461 38.9818 11.0551 35.8832 13.7069 33.3901C16.3588 30.8969 19.6546 29.2408 23.2535 28.5641C23.2345 28.4394 23.2156 28.3326 23.1967 28.2079H8.6306C8.55484 28.2792 8.49801 28.3326 8.42224 28.4038C5.99773 30.6654 4.10357 33.301 2.77766 36.2572C1.39493 39.3023 0.694092 42.5434 0.694092 45.8735V49.3995H30.6596H30.7165V28.2079V27.9586V24.6819V7.39035H30.7354H30.7922V7.37254H45.5287C44.809 10.7561 43.0285 13.8547 40.3766 16.3478C38.4825 18.1286 36.2474 19.482 33.8039 20.3546V21.156H45.8318C48.1616 18.93 49.999 16.3478 51.3059 13.4629C52.6887 10.4177 53.3705 7.17665 53.3895 3.84655V0.320557H23.2914V7.46158Z" fill="#FDB31C"/>
<path d="M23.2914 28.5463V28.2079H23.1777H8.63062H23.1967C23.2156 28.3326 23.2346 28.4395 23.2535 28.5641C23.2724 28.5641 23.2724 28.5463 23.2914 28.5463Z" fill="white"/>
<path d="M23.1967 28.2079H23.3103V7.46157C23.2345 7.39033 23.1588 7.3191 23.083 7.23006C20.6585 4.96844 17.8362 3.18764 14.7108 1.94108C11.4718 0.658897 8.02447 0 4.4824 0H0.694092V28.2079H8.6306H23.1967ZM8.176 21.1738V7.37253C11.7938 8.04923 15.1086 9.70538 17.7604 12.1985C20.4122 14.6916 22.1738 17.7902 22.9125 21.1738H8.176Z" fill="#094989"/>
<path d="M33.804 28.2079H45.5288V42.0092C41.9109 41.3325 38.5962 39.6763 35.9444 37.1832C35.1488 36.4353 34.448 35.6517 33.8229 34.7969V44.6982C35.4329 45.8023 37.1756 46.7105 39.0129 47.4584C42.2519 48.7406 45.6992 49.3995 49.2413 49.3995H53.0107V21.1738H45.8318H33.804V28.2079Z" fill="#094989"/>
<path d="M30.7354 49.3817H30.7732V28.2079H30.7922V27.9586L30.7732 24.6997V7.39032H30.7354V49.3817Z" fill="white"/>
</svg>
