<svg width="233" height="54" viewBox="0 0 233 54" fill="none" xmlns="http://www.w3.org/2000/svg">
<path d="M80.545 38.6416H74.6348V15.7192H84.0305C86.5879 15.7192 88.539 16.3884 89.884 17.7266C91.2289 19.0649 91.9109 20.9575 91.9109 23.3855C91.9109 25.8135 91.2289 27.7062 89.884 29.0444C88.52 30.3827 86.5689 31.0518 84.0305 31.0518H80.545V38.6416ZM80.545 26.2341H82.4961C84.6557 26.2341 85.7544 25.2782 85.7544 23.3855C85.7544 21.4928 84.6746 20.537 82.4961 20.537H80.545V26.2341Z" fill="white"/>
<path d="M100.966 15.7202V33.5955H108.051V38.6426H95.0752V15.7202H100.966Z" fill="white"/>
<path d="M116.556 15.7202V28.1851C116.556 28.8542 116.575 29.5425 116.632 30.2307C116.689 30.9381 116.84 31.569 117.087 32.1234C117.333 32.6969 117.731 33.1558 118.28 33.4999C118.83 33.8631 119.587 34.0352 120.572 34.0352C121.557 34.0352 122.315 33.8631 122.845 33.4999C123.376 33.1366 123.774 32.6778 124.039 32.1234C124.304 31.5499 124.456 30.919 124.512 30.2307C124.569 29.5234 124.588 28.8542 124.588 28.1851V15.7202H130.461V29.0072C130.461 32.5822 129.646 35.1823 128.036 36.8264C126.426 38.4705 123.925 39.2926 120.572 39.2926C117.219 39.2926 114.738 38.4705 113.109 36.8264C111.48 35.1823 110.665 32.5822 110.665 29.0072V15.7202H116.556Z" fill="white"/>
<path d="M147.679 21.5889C147.035 21.0536 146.391 20.6712 145.747 20.4227C145.103 20.1742 144.478 20.0403 143.872 20.0403C143.114 20.0403 142.489 20.2315 141.996 20.5948C141.504 20.958 141.277 21.4359 141.277 22.0286C141.277 22.4301 141.39 22.7742 141.636 23.0227C141.883 23.2904 142.186 23.5198 142.584 23.711C142.981 23.9022 143.417 24.0742 143.91 24.208C144.402 24.3419 144.895 24.4948 145.368 24.6669C147.3 25.3169 148.702 26.1772 149.593 27.2669C150.483 28.3566 150.937 29.7714 150.937 31.5111C150.937 32.6773 150.748 33.7479 150.35 34.7038C149.952 35.6597 149.384 36.4626 148.626 37.1509C147.869 37.8391 146.94 38.3553 145.861 38.7377C144.762 39.12 143.531 39.2921 142.148 39.2921C139.269 39.2921 136.617 38.4318 134.173 36.7112L136.711 31.9126C137.602 32.6964 138.473 33.2891 139.325 33.6714C140.197 34.0538 141.049 34.245 141.883 34.245C142.849 34.245 143.569 34.0155 144.042 33.5758C144.516 33.1361 144.743 32.6199 144.743 32.0655C144.743 31.7214 144.686 31.4155 144.554 31.167C144.44 30.9184 144.232 30.689 143.947 30.4596C143.663 30.2493 143.303 30.0581 142.849 29.8669C142.394 29.6758 141.845 29.4846 141.201 29.2552C140.443 29.0066 139.685 28.739 138.965 28.4522C138.227 28.1655 137.583 27.764 137.014 27.286C136.446 26.8081 135.972 26.1963 135.631 25.4507C135.272 24.7051 135.101 23.7683 135.101 22.6404C135.101 21.5124 135.29 20.48 135.65 19.5624C136.029 18.6447 136.541 17.8418 137.223 17.1918C137.905 16.5418 138.719 16.0256 139.685 15.6623C140.651 15.2991 141.75 15.1079 142.962 15.1079C144.08 15.1079 145.255 15.2609 146.486 15.5859C147.717 15.8917 148.892 16.3697 150.009 16.9623L147.679 21.5889Z" fill="white"/>
<path d="M161.261 18.9703V38.6426H157.833V18.9703H152.604V15.7202H166.452V18.9703H161.261Z" fill="white"/>
<path d="M182.061 18.9703H172.95V24.4762H181.796V27.7263H172.95V35.3926H182.061V38.6426H169.54V15.7202H182.061V18.9703Z" fill="white"/>
<path d="M199.905 33.0791H190.187L187.649 38.6424H183.955L195.188 14.2861L206.024 38.6424H202.273L199.905 33.0791ZM198.503 29.829L195.131 22.0289L191.608 29.829H198.503Z" fill="white"/>
<path d="M208.071 38.6425L212.844 13.9995L220.63 31.8174L228.7 13.9995L233 38.6425H229.476L227.317 24.8011L220.592 39.694L214.057 24.8011L211.613 38.6425H208.071Z" fill="white"/>
<path d="M22.5991 8.00955V30.301V45.4807H7.86138C8.58122 41.8483 10.3619 38.5217 13.0139 35.8452C15.6659 33.1687 18.962 31.3908 22.5612 30.6643C22.5423 30.5305 22.5233 30.4157 22.5044 30.2819H7.93715C7.86138 30.3584 7.80455 30.4157 7.72878 30.4922C5.30406 32.9202 3.40976 35.7496 2.08374 38.9232C0.700894 42.1924 0 45.6718 0 49.2469V53.0322H29.968H30.0248V30.2819V30.0143V26.4966V7.93308H30.0437H30.1006V7.91396H44.8383C44.1184 11.5464 42.3378 14.8729 39.6858 17.5494C37.7915 19.4612 35.5562 20.9141 33.1125 21.8509V22.7112H45.1414C47.4714 20.3215 49.3089 17.5494 50.6159 14.4523C51.9988 11.1831 52.6807 7.70366 52.6997 4.12861V0.343262H22.5991V8.00955Z" fill="white"/>
<path d="M22.5995 30.6448V30.2822H22.4858H7.9375H22.5047C22.5237 30.4158 22.5426 30.5303 22.5616 30.6639C22.5805 30.6639 22.5805 30.6448 22.5995 30.6448Z" fill="white"/>
<path d="M22.5044 30.2828H22.618V8.01041C22.5423 7.93394 22.4665 7.85746 22.3907 7.76188C19.966 5.3339 17.1435 3.42211 14.0179 2.08385C10.7786 0.707363 7.33097 0 3.78862 0H0V30.2828H7.93715H22.5044ZM7.48252 22.7312V7.91482C11.1006 8.6413 14.4157 10.4193 17.0677 13.0958C19.7198 15.7723 21.4815 19.0988 22.2202 22.7312H7.48252Z" fill="white"/>
<path d="M33.1123 30.282H44.8381V45.0984C41.2199 44.372 37.9049 42.594 35.2529 39.9175C34.4573 39.1145 33.7564 38.2733 33.1312 37.3557V47.9852C34.7414 49.1706 36.4842 50.1456 38.3217 50.9485C41.5609 52.325 45.0086 53.0324 48.5509 53.0324H52.3206V22.7305H45.1412H33.1123V30.282Z" fill="white"/>
<path d="M30.043 53.0137H30.0809V30.2824H30.0998V30.0148L30.0809 26.5162V7.93359H30.043V53.0137Z" fill="white"/>
</svg>
